<svg width="15" height="15" viewBox="0 0 15 15" fill="none" xmlns="http://www.w3.org/2000/svg">
<path d="M6.22735 0.52002C5.32721 0.52002 4.46394 0.877598 3.82745 1.51409C3.19095 2.15059 2.83337 3.01386 2.83337 3.914C2.83337 4.81413 3.19095 5.67741 3.82745 6.3139C4.46394 6.95039 5.32721 7.30797 6.22735 7.30797C7.12749 7.30797 7.99076 6.95039 8.62725 6.3139C9.26375 5.67741 9.62133 4.81413 9.62133 3.914C9.62133 3.01386 9.26375 2.15059 8.62725 1.51409C7.99076 0.877598 7.12749 0.52002 6.22735 0.52002Z" fill="white"/>
<path d="M1.99247 8.15645C1.769 8.15555 1.54756 8.19878 1.34084 8.28365C1.13412 8.36852 0.946192 8.49337 0.787825 8.65103C0.629457 8.80868 0.503771 8.99605 0.417972 9.20239C0.332174 9.40873 0.287952 9.62997 0.287842 9.85343C0.287842 11.2882 0.994637 12.3701 2.09938 13.0752C3.18715 13.7684 4.65334 14.0959 6.2273 14.0959C6.57518 14.0959 6.91967 14.0798 7.25398 14.0475C6.58785 13.2198 6.2255 12.1887 6.2273 11.1262C6.2273 9.99768 6.62779 8.96252 7.29386 8.15645H1.99331H1.99247Z" fill="white"/>
<path d="M10.8941 14.9444C11.9067 14.9444 12.8779 14.5422 13.594 13.8261C14.31 13.11 14.7123 12.1389 14.7123 11.1262C14.7123 10.1136 14.31 9.14237 13.594 8.42632C12.8779 7.71026 11.9067 7.30798 10.8941 7.30798C9.88143 7.30798 8.91025 7.71026 8.1942 8.42632C7.47814 9.14237 7.07587 10.1136 7.07587 11.1262C7.07587 12.1389 7.47814 13.11 8.1942 13.8261C8.91025 14.5422 9.88143 14.9444 10.8941 14.9444ZM10.8941 9.00497C11.0066 9.00497 11.1145 9.04967 11.1941 9.12923C11.2736 9.20879 11.3183 9.3167 11.3183 9.42922V10.702H12.5911C12.7036 10.702 12.8115 10.7467 12.8911 10.8262C12.9706 10.9058 13.0153 11.0137 13.0153 11.1262C13.0153 11.2387 12.9706 11.3466 12.8911 11.4262C12.8115 11.5058 12.7036 11.5505 12.5911 11.5505H11.3183V12.8232C11.3183 12.9357 11.2736 13.0436 11.1941 13.1232C11.1145 13.2027 11.0066 13.2474 10.8941 13.2474C10.7816 13.2474 10.6737 13.2027 10.5941 13.1232C10.5145 13.0436 10.4698 12.9357 10.4698 12.8232V11.5505H9.1971C9.08458 11.5505 8.97668 11.5058 8.89711 11.4262C8.81755 11.3466 8.77286 11.2387 8.77286 11.1262C8.77286 11.0137 8.81755 10.9058 8.89711 10.8262C8.97668 10.7467 9.08458 10.702 9.1971 10.702H10.4698V9.42922C10.4698 9.3167 10.5145 9.20879 10.5941 9.12923C10.6737 9.04967 10.7816 9.00497 10.8941 9.00497Z" fill="white"/>
</svg>
