<svg width="13" height="13" viewBox="0 0 13 13" fill="none" xmlns="http://www.w3.org/2000/svg">
<path d="M3.27811 1.90819C3.27811 1.90819 3.9299 1.46307 4.38733 1.51174C5.00412 1.57736 5.38473 1.93646 5.83724 2.60112C6.22259 3.16714 6.46264 4.0267 6.36082 4.41047C6.17037 5.12832 4.88651 5.61178 4.88651 5.61178C4.77581 5.75099 5.2614 6.67513 5.83724 7.41437C6.35548 8.07956 6.98942 8.6303 7.15916 8.62547L7.1885 8.62138L7.22371 8.60953C7.22371 8.60953 7.97224 7.85953 8.82083 7.55963C9.23184 7.41437 9.75562 7.89768 10.2339 8.39669C11.0538 9.25207 11.2362 9.41636 11.0538 10.1495C10.9497 10.5676 10.6151 11.0926 10.6151 11.0926C10.3267 11.4533 9.94085 11.7236 9.50334 11.8714C9.06583 12.0192 8.59508 12.0383 8.14706 11.9263C6.75266 11.5778 5.3839 10.5288 4.03158 8.79302C2.67587 7.05287 1.99322 5.46599 1.99953 4.0267C2.00136 3.59101 2.12122 3.16395 2.34635 2.79092C2.57148 2.4179 2.89347 2.11284 3.27811 1.90819Z" fill="#7CC076"/>
</svg>
