<svg width="30" height="30" viewBox="0 0 30 30" fill="none" xmlns="http://www.w3.org/2000/svg">
<g opacity="0.6">
<path d="M14.7914 6.34873C15.6984 6.33438 16.6001 6.34288 17.5009 6.33438C17.5554 7.41868 17.9369 8.52317 18.7134 9.28978C19.4884 10.0755 20.5845 10.4352 21.6511 10.5568V13.4092C20.6516 13.3757 19.6474 13.1632 18.7405 12.7233C18.3455 12.5405 17.9775 12.3052 17.6173 12.0645C17.6126 14.1343 17.6256 16.2015 17.6043 18.2627C17.5502 19.253 17.2306 20.2385 16.6672 21.0545C15.7607 22.4129 14.1875 23.2985 12.5716 23.3262C11.5804 23.3841 10.5903 23.1078 9.74567 22.5989C8.34599 21.7552 7.36106 20.2109 7.21761 18.5533C7.19954 18.2023 7.19676 17.8506 7.20929 17.4993C7.33403 16.1515 7.98632 14.8622 8.99879 13.985C10.1464 12.9634 11.754 12.4768 13.2592 12.7647C13.2732 13.814 13.2322 14.8622 13.2322 15.9114C12.5445 15.684 11.741 15.7478 11.1402 16.1744C10.7006 16.4704 10.3684 16.9059 10.1947 17.4138C10.0513 17.7729 10.0923 18.1719 10.1007 18.5533C10.2654 19.7157 11.359 20.6927 12.5263 20.587C13.3002 20.5785 14.0419 20.1195 14.4453 19.4474C14.5757 19.2121 14.7218 18.9714 14.7296 18.6947C14.7976 17.4276 14.7706 16.1659 14.7789 14.8988C14.7847 12.0433 14.7706 9.19574 14.7919 6.34926L14.7914 6.34873Z" fill="#2F93E1"/>
</g>
</svg>
