<svg width="14" height="15" viewBox="0 0 14 15" fill="none" xmlns="http://www.w3.org/2000/svg">
<path d="M10.858 8.91573V4.11434M3.08378 8.62013V4.11543M0.707658 13.3682L4.42934 9.96684M0.707658 13.3682C0.942978 13.5657 1.54779 13.5365 1.66746 13.5286C1.6815 13.5276 1.69525 13.5271 1.70932 13.5271H12.4931C12.5066 13.5271 12.5198 13.5266 12.5333 13.525C12.6329 13.5137 13.078 13.449 13.2346 13.1871M0.707658 13.3682C0.567088 13.2525 0.595528 12.4889 0.600189 12.3827C0.600559 12.3743 0.600756 12.3663 0.600756 12.3578V7.34732C0.600756 7.34732 0.600756 7.34732 0.600756 7.34732C0.600756 7.34732 0.600756 6.87698 0.600756 6.67301M13.2346 13.1871C11.7737 11.9122 9.48214 9.96684 9.48214 9.96684M13.2346 13.1871C13.4291 12.8551 13.4068 12.239 13.4011 12.1294C13.4006 12.118 13.4002 12.1068 13.4002 12.0954V7.16516C13.4002 7.16516 13.4002 7.16516 13.4002 7.16516C13.4002 7.16516 13.4002 6.88043 13.2901 6.67301M13.2901 6.67301L9.48214 9.96684M13.2901 6.67301C13.1609 6.42943 12.9583 6.18747 12.908 6.12888C12.9003 6.11987 12.8922 6.11134 12.8837 6.10302L10.858 4.11434M0.600756 6.67301L4.42934 9.96684M0.600756 6.67301C0.600756 6.45706 1.05924 6.02899 1.10038 5.99102C1.10256 5.989 1.1044 5.98729 1.10656 5.98525L3.08378 4.11543M3.08378 4.11543V2.883C3.08378 2.60685 3.30764 2.383 3.58378 2.383H4.80816M4.80816 2.383L6.60538 0.846444C6.79082 0.687894 7.06362 0.686341 7.25086 0.842769L9.09447 2.383M4.80816 2.383H9.09447M10.858 4.11434V2.883C10.858 2.60685 10.6342 2.383 10.358 2.383H9.09447M4.42934 9.96684L6.58999 7.95764C6.78028 7.78069 7.07441 7.77899 7.26673 7.95375L9.48214 9.96684" stroke="#FFA438"/>
</svg>
