<svg width="24" height="24" viewBox="0 0 24 24" fill="none" xmlns="http://www.w3.org/2000/svg">
<mask id="path-1-inside-1_1_149" fill="white">
<path fill-rule="evenodd" clip-rule="evenodd" d="M22 8.99994V12V12.4999V16C22 17.1 21.1 18 20 18H17.755V16H11.9241H6.24769V18H4C2.9 18 2 17.1 2 16V12.4999V12V8.99994C2 7.89994 2.9 6.99994 4 6.99994H20C21.1 6.99994 22 7.89994 22 8.99994Z"/>
</mask>
<path d="M17.755 18H16.255V19.5H17.755V18ZM17.755 16H19.255V14.5H17.755V16ZM6.24769 16V14.5H4.74769V16H6.24769ZM6.24769 18V19.5H7.74769V18H6.24769ZM23.5 12V8.99994H20.5V12H23.5ZM23.5 12.4999V12H20.5V12.4999H23.5ZM23.5 16V12.4999H20.5V16H23.5ZM20 19.5C21.9284 19.5 23.5 17.9284 23.5 16H20.5C20.5 16.2716 20.2716 16.5 20 16.5V19.5ZM17.755 19.5H20V16.5H17.755V19.5ZM16.255 16V18H19.255V16H16.255ZM11.9241 17.5H17.755V14.5H11.9241V17.5ZM6.24769 17.5H11.9241V14.5H6.24769V17.5ZM7.74769 18V16H4.74769V18H7.74769ZM4 19.5H6.24769V16.5H4V19.5ZM0.5 16C0.5 17.9284 2.07157 19.5 4 19.5V16.5C3.72843 16.5 3.5 16.2716 3.5 16H0.5ZM0.5 12.4999V16H3.5V12.4999H0.5ZM0.5 12V12.4999H3.5V12H0.5ZM0.5 8.99994V12H3.5V8.99994H0.5ZM4 5.49994C2.07157 5.49994 0.5 7.07151 0.5 8.99994H3.5C3.5 8.72837 3.72843 8.49994 4 8.49994V5.49994ZM20 5.49994H4V8.49994H20V5.49994ZM23.5 8.99994C23.5 7.07151 21.9284 5.49994 20 5.49994V8.49994C20.2716 8.49994 20.5 8.72837 20.5 8.99994H23.5Z" fill="#606483" mask="url(#path-1-inside-1_1_149)"/>
<path d="M5.5 3.20068H18.5V7.63836H5.5V3.20068Z" stroke="#606483" stroke-width="1.5" stroke-linecap="round" stroke-linejoin="round"/>
<path d="M18.75 15.5001H5.25C4.85 15.5001 4.5 15.1501 4.5 14.7501C4.5 14.3501 4.85 14.0001 5.25 14.0001H18.75C19.15 14.0001 19.5 14.3501 19.5 14.7501C19.5 15.1501 19.15 15.5001 18.75 15.5001Z" fill="#606483"/>
<path d="M5.5 15.5327H18.5V22.0006H5.5V15.5327Z" stroke="#606483" stroke-width="1.5" stroke-linecap="round" stroke-linejoin="round"/>
<line x1="8.53891" y1="18.6538" x2="15.4611" y2="18.6538" stroke="#606483" stroke-width="1.5" stroke-linecap="round"/>
</svg>
