<svg width="14" height="14" viewBox="0 0 14 14" fill="none" xmlns="http://www.w3.org/2000/svg">
<path fill-rule="evenodd" clip-rule="evenodd" d="M0.653076 1.08691C0.653076 0.534629 1.10079 0.0869141 1.65308 0.0869141H10.9253C11.4776 0.0869141 11.9253 0.53463 11.9253 1.08691V7.56664C11.9253 7.84279 11.7015 8.06664 11.4253 8.06664C11.1492 8.06664 10.9253 7.84279 10.9253 7.56664L10.9253 1.08691L1.65308 1.08691V12.8417H7.07117C7.34732 12.8417 7.57117 13.0655 7.57117 13.3417C7.57117 13.6178 7.34732 13.8417 7.07117 13.8417H1.65308C1.10079 13.8417 0.653076 13.394 0.653076 12.8417V1.08691Z" fill="#FFA438"/>
<path fill-rule="evenodd" clip-rule="evenodd" d="M3.14026 3.68048C3.14026 3.40434 3.36412 3.18048 3.64026 3.18048H8.93814C9.21428 3.18048 9.43814 3.40434 9.43814 3.68048C9.43814 3.95662 9.21428 4.18048 8.93814 4.18048H3.64026C3.36412 4.18048 3.14026 3.95662 3.14026 3.68048Z" fill="#FFA438"/>
<path fill-rule="evenodd" clip-rule="evenodd" d="M3.14026 5.68048C3.14026 5.40434 3.36412 5.18048 3.64026 5.18048H8.93814C9.21428 5.18048 9.43814 5.40434 9.43814 5.68048C9.43814 5.95662 9.21428 6.18048 8.93814 6.18048H3.64026C3.36412 6.18048 3.14026 5.95662 3.14026 5.68048Z" fill="#FFA438"/>
<path fill-rule="evenodd" clip-rule="evenodd" d="M3.14026 7.68048C3.14026 7.40434 3.36412 7.18048 3.64026 7.18048H6.10458C6.38073 7.18048 6.60458 7.40434 6.60458 7.68048C6.60458 7.95662 6.38073 8.18048 6.10458 8.18048H3.64026C3.36412 8.18048 3.14026 7.95662 3.14026 7.68048Z" fill="#FFA438"/>
<path fill-rule="evenodd" clip-rule="evenodd" d="M13.1362 8.72628C13.3614 8.88602 13.4146 9.19811 13.2548 9.42336L10.5463 13.2427C10.1998 13.7314 9.50433 13.8078 9.05998 13.406L7.21949 11.742C7.01465 11.5568 6.99873 11.2407 7.18392 11.0358C7.36912 10.831 7.6853 10.8151 7.89014 11.0003L9.73062 12.6642L12.4391 8.8449C12.5988 8.61965 12.9109 8.56654 13.1362 8.72628Z" fill="#FFA438"/>
</svg>
