<svg width="30" height="30" viewBox="0 0 30 30" fill="none" xmlns="http://www.w3.org/2000/svg">
<path d="M15.4423 11.5926C13.8035 11.5926 12.4662 12.9299 12.4662 14.5687C12.4662 16.2074 13.8035 17.5448 15.4423 17.5448C17.0811 17.5448 18.4184 16.2074 18.4184 14.5687C18.4184 12.9299 17.0811 11.5926 15.4423 11.5926ZM24.3684 14.5687C24.3684 13.3363 24.3795 12.115 24.3103 10.8848C24.2411 9.45594 23.9152 8.1878 22.8703 7.14293C21.8232 6.09582 20.5573 5.77209 19.1284 5.70288C17.896 5.63367 16.6747 5.64483 15.4445 5.64483C14.2121 5.64483 12.9909 5.63367 11.7607 5.70288C10.3318 5.77209 9.06366 6.09805 8.01878 7.14293C6.97168 8.19004 6.64794 9.45594 6.57873 10.8848C6.50952 12.1172 6.52068 13.3385 6.52068 14.5687C6.52068 15.7989 6.50952 17.0223 6.57873 18.2525C6.64794 19.6814 6.97391 20.9496 8.01878 21.9944C9.06589 23.0415 10.3318 23.3653 11.7607 23.4345C12.9931 23.5037 14.2143 23.4925 15.4445 23.4925C16.6769 23.4925 17.8982 23.5037 19.1284 23.4345C20.5573 23.3653 21.8254 23.0393 22.8703 21.9944C23.9174 20.9473 24.2411 19.6814 24.3103 18.2525C24.3818 17.0223 24.3684 15.8011 24.3684 14.5687V14.5687ZM15.4423 19.1478C12.9083 19.1478 10.8632 17.1027 10.8632 14.5687C10.8632 12.0346 12.9083 9.98954 15.4423 9.98954C17.9763 9.98954 20.0214 12.0346 20.0214 14.5687C20.0214 17.1027 17.9763 19.1478 15.4423 19.1478ZM20.209 10.8714C19.6173 10.8714 19.1395 10.3936 19.1395 9.802C19.1395 9.21035 19.6173 8.73257 20.209 8.73257C20.8006 8.73257 21.2784 9.21035 21.2784 9.802C21.2786 9.94249 21.251 10.0816 21.1974 10.2115C21.1437 10.3413 21.0649 10.4593 20.9656 10.5586C20.8662 10.6579 20.7483 10.7367 20.6184 10.7904C20.4886 10.8441 20.3495 10.8716 20.209 10.8714V10.8714Z" fill="#2F93E1"/>
</svg>
