<svg width="60" height="45" viewBox="0 0 60 45" fill="none" xmlns="http://www.w3.org/2000/svg">
<ellipse cx="30.7355" cy="22.1833" rx="22.3235" ry="22" fill="#E7EEF6"/>
<path d="M48.9498 32.0799V14.001C48.9498 13.1963 48.2871 12.5378 47.4772 12.5378H23.9616C23.1516 12.5378 22.489 13.1963 22.489 14.001V32.0891H48.9498V32.0799Z" fill="#7991BE"/>
<path d="M51.4805 12.5378H46.9799C47.7898 12.5378 48.4525 13.1963 48.4525 14.001V32.0891H52.9531V14.001C52.9531 13.1871 52.2996 12.5378 51.4805 12.5378Z" fill="#606483"/>
<path d="M48.9491 15.3638H26.3079C25.7649 15.3638 25.3323 15.7936 25.3323 16.3331V31.1931H48.9491V15.3638Z" fill="white"/>
<path d="M50.1093 31.184V16.3331C50.1093 15.7936 49.6675 15.3638 49.1337 15.3638H48.4526V31.1931H50.1093V31.184Z" fill="#F3F6F8"/>
<path d="M51.1493 32.9029V31.1837H20.9425C20.4547 31.1837 20.059 31.5769 20.059 32.0616C20.059 33.7991 21.4763 35.2074 23.2251 35.2074H48.8299C50.1092 35.2165 51.1493 34.1832 51.1493 32.9029Z" fill="#7991BE"/>
<path d="M54.4994 31.1837H50.8823V32.9029C50.8823 34.174 49.8423 35.2074 48.563 35.2074H52.2169C53.9656 35.2074 55.383 33.7991 55.383 32.0616C55.383 31.5769 54.9872 31.1837 54.4994 31.1837Z" fill="#606483"/>
<path d="M32.3369 31.1837C32.3369 32.2994 33.248 33.1955 34.3617 33.1955H41.0712C42.1941 33.1955 43.096 32.2902 43.096 31.1837H32.3369Z" fill="#606483"/>
<path d="M40.3193 16.4061H38.3424C37.3631 16.4061 36.5669 17.1908 36.5669 18.1559V19.8426L36.9238 20.0951H40.4749V16.6677L40.3193 16.4061Z" fill="#F9CC5D"/>
<path d="M44.2088 25.5158L41.6737 24.7852H37.7108L35.1756 25.5158C34.2696 25.7774 33.6472 26.5981 33.6472 27.5362V31.0899H45.7464V27.5362C45.7372 26.5981 45.1149 25.7774 44.2088 25.5158Z" fill="#E7EEF6"/>
<path d="M44.2089 25.5158L41.6737 24.7852H39.706L39.7243 25.7774L41.7103 26.3817C42.6164 26.6432 43.2387 27.464 43.2387 28.402V31.0989H45.7373V27.5452C45.7373 26.5981 45.1149 25.7774 44.2089 25.5158Z" fill="#D8DEEB"/>
<path d="M40.0808 27.1936H39.312L38.6165 31.072V31.081H40.7764L40.0808 27.1936Z" fill="#606483"/>
<path d="M41.0885 24.9477V22.7469H38.3062V24.9477C38.3062 25.7053 39.6973 25.7684 39.6973 25.7684C39.6973 25.7684 41.0885 25.7053 41.0885 24.9477Z" fill="#FFDDCE"/>
<path d="M44.0258 31.081V29.8633C44.0258 29.701 43.8977 29.5747 43.7329 29.5747C43.5682 29.5747 43.4401 29.701 43.4401 29.8633V31.081H44.0258Z" fill="#B9CBEA"/>
<path d="M42.049 17.4252H42.0215C41.8751 17.4252 41.7653 17.308 41.7653 17.1727C41.7653 16.7578 41.4175 16.415 40.9965 16.415H40.3192V20.104H42.4608L42.8177 19.8515V18.1919C42.8177 17.768 42.47 17.4252 42.049 17.4252Z" fill="#F7BD3C"/>
<path d="M37.7565 24.6319L37.3629 24.8033C37.1341 24.9025 37.0792 25.2002 37.2531 25.3715L38.3514 26.4539C38.4887 26.5892 38.7083 26.5982 38.8547 26.4719L39.715 25.7594L38.2507 24.677C38.1134 24.5868 37.9212 24.5598 37.7565 24.6319Z" fill="#B9CBEA"/>
<path d="M41.1242 24.6951L39.7147 25.7684L40.5201 26.4539C40.6665 26.5802 40.8862 26.5711 41.0326 26.4359L42.1309 25.3806C42.3139 25.2092 42.259 24.9116 42.0302 24.8123L41.6275 24.6319C41.4628 24.5598 41.2706 24.5868 41.1242 24.6951Z" fill="#B9CBEA"/>
<path d="M39.724 25.7684L38.8729 26.4629L39.303 27.1935H40.0718L40.502 26.4268L39.724 25.7684Z" fill="#606483"/>
<path d="M35.9538 31.081V29.8633C35.9538 29.701 35.8257 29.5747 35.661 29.5747C35.4962 29.5747 35.3681 29.701 35.3681 29.8633V31.081H35.9538Z" fill="#B9CBEA"/>
<path d="M40.4749 21.3758V18.6339C39.7793 18.7602 39.0563 18.7151 38.379 18.4986C38.0129 18.3813 37.6377 18.6519 37.6377 19.0307V19.3194C37.6377 19.608 37.3997 19.8515 37.0977 19.8515H36.5669V20.7174C36.5669 20.9339 36.7499 21.1143 36.9696 21.1143C37.0428 21.1143 37.0977 21.1684 37.0977 21.2405C37.1709 22.4131 38.0495 23.3691 39.1936 23.5856C39.9532 23.1166 40.4566 22.3048 40.4749 21.3758Z" fill="#FFDDCE"/>
<path d="M42.2866 19.8425C41.9937 19.8425 41.7466 19.608 41.7466 19.3103V19.0217C41.7466 18.6429 41.3714 18.3723 41.0053 18.4896C40.7765 18.5617 40.5477 18.6158 40.3189 18.6519V21.3307C40.3006 22.2687 39.7698 23.0895 38.9918 23.5225C39.2115 23.5856 39.4494 23.6126 39.6874 23.6126C41.0602 23.6126 42.1859 22.5574 42.2775 21.2225C42.2775 21.1503 42.3415 21.0962 42.4056 21.0962C42.6252 21.0962 42.8083 20.9158 42.8083 20.6993V19.8425H42.2866Z" fill="#FFCBBE"/>
<path d="M39.4235 10.5992H38.2546V12.5287H39.4235V10.5992Z" fill="#606483"/>
<path d="M41.4391 9.429C41.4391 10.8556 40.2703 12.0169 38.8345 12.0169C37.3987 12.0169 36.2298 10.8556 36.2298 9.429C36.2298 8.00243 37.3987 6.84106 38.8345 6.84106C40.2795 6.84106 41.4391 7.99329 41.4391 9.429Z" fill="#B6C2DA"/>
<path d="M40.0495 9.42853C40.0495 10.0961 39.5065 10.6356 38.8346 10.6356C38.1627 10.6356 37.6197 10.0961 37.6197 9.42853C37.6197 8.76097 38.1627 8.22144 38.8346 8.22144C39.5065 8.22144 40.0495 8.76097 40.0495 9.42853Z" fill="#606483"/>
<path d="M39.4143 9.42859C39.4143 9.74865 39.1565 10.0047 38.8344 10.0047C38.5123 10.0047 38.2546 9.74865 38.2546 9.42859C38.2546 9.10853 38.5123 8.85248 38.8344 8.85248C39.1565 8.85248 39.4143 9.10853 39.4143 9.42859Z" fill="#1E1D2E"/>
<path opacity="0.7" d="M39.4871 8.98968C39.4871 9.10856 39.3952 9.20001 39.2758 9.20001C39.1565 9.20001 39.0646 9.10856 39.0646 8.98968C39.0646 8.8708 39.1565 8.77936 39.2758 8.77936C39.3952 8.77936 39.4871 8.8708 39.4871 8.98968Z" fill="white"/>
<path opacity="0.1" d="M41.4391 9.42881C41.4391 8.00225 40.2702 6.84088 38.8344 6.84088V12.0167C40.2794 12.0167 41.4391 10.8554 41.4391 9.42881Z" fill="#D8DEEB"/>
<path d="M26.2582 8.11627H22.0371C20.2327 8.11627 18.7678 9.56003 18.7678 11.3382V14.446L21.5156 19.5195L26.6141 20.1557V9.02168L26.2582 8.11627Z" fill="#CB7B4F"/>
<path d="M28.8827 9.99234H28.8331C28.5682 9.99234 28.353 9.78026 28.353 9.51924C28.353 8.74435 27.7157 8.11627 26.9294 8.11627H26.2507V20.0905L28.3034 19.2014L30.2898 14.446V11.3872C30.2981 10.6123 29.6608 9.99234 28.8827 9.99234Z" fill="#B65D37"/>
<path d="M33.5497 29.2179C33.5497 27.6926 32.5482 26.3467 31.0749 25.8899L27.0863 23.9486L25.5634 23.3613L24.5371 23.3287L19.7779 23.4918L15.4244 24.854C13.9428 25.3108 12.9413 26.6648 12.9413 28.182V39.9691C12.9413 40.6788 13.5207 41.2498 14.2408 41.2498H33.5497V29.2179Z" fill="#FFA04F"/>
<path d="M33.6496 24.854L29.2961 23.4918L25.2487 23.3531L23.5685 23.0269L30.5686 26.1428C32.0419 26.5995 33.0434 27.9536 33.0434 29.4707V41.2756H34.8249C35.545 41.2756 36.1244 40.7047 36.1244 39.995V28.182C36.1244 26.6648 35.1229 25.3108 33.6496 24.854Z" fill="#EF8B35"/>
<path d="M27.2021 23.2388V19.919H21.8636V23.2388L24.5287 23.3286L27.2021 23.2388Z" fill="#FFCBBE"/>
<path d="M27.8805 18.9894C26.9121 18.9894 22.2688 19.2015 21.8798 18.916H21.9129C21.2342 18.6958 19.7527 14.4461 19.7527 14.4461H18.7678V16.0367C18.7678 16.4445 19.0988 16.7708 19.5127 16.7708C19.6451 16.7708 19.7527 16.8687 19.761 16.9992C19.8934 19.1118 21.4412 20.8492 23.4772 21.2978C25.2898 20.6045 27.8805 18.9894 27.8805 18.9894Z" fill="#FFCBBE"/>
<path d="M29.321 14.4461C29.321 14.4461 28.4189 18.8834 27.3925 19.0221C27.136 19.0547 25.3482 19.1444 25.1164 19.2015C25.1164 19.2015 24.8764 20.5556 23.0059 21.1755C23.4859 21.3386 23.9991 21.4202 24.5371 21.4202C27.078 21.4202 29.1555 19.4707 29.3128 17.0073C29.321 16.8768 29.4286 16.779 29.5611 16.779C29.9749 16.779 30.306 16.4527 30.306 16.0448V14.4461H29.321Z" fill="#FFCBBE"/>
<path d="M24.5284 25.2619L23.1048 26.4691C22.7572 26.7709 22.2192 26.7138 21.9378 26.3467L19.761 23.4837L20.5473 22.8067C20.928 22.4804 21.5074 22.4886 21.8798 22.8311L24.5284 25.2619Z" fill="#FFA04F"/>
<path d="M24.6362 21.5179L24.4707 23.1411C24.4873 23.5979 25.1246 23.9486 25.5881 23.8997L29.1967 23.5245L29.1636 22.4967C29.1471 21.991 28.7498 21.5831 28.2449 21.5505L24.6362 21.5179Z" fill="#EF8B35"/>
<path d="M21.0358 21.5423C20.5309 21.5831 20.1253 21.991 20.117 22.4885L20.0839 23.5163L23.6926 23.8915C24.1561 23.9404 24.661 23.5897 24.6775 23.1329L24.6444 21.5097L21.0358 21.5423Z" fill="#FFA04F"/>
<path d="M30.5156 33.7967C30.5156 33.5436 30.7207 33.3385 30.9738 33.3385C31.2268 33.3385 31.4319 33.5436 31.4319 33.7967V41.2497H30.5156V33.7967Z" fill="#EF8B35"/>
<path d="M16.8424 33.8226C16.8424 33.5696 17.0475 33.3644 17.3006 33.3644C17.5536 33.3644 17.7587 33.5696 17.7587 33.8226V41.2756H16.8424V33.8226Z" fill="#EF8B35"/>
<path d="M47.9746 18.8595C48.5356 18.8595 48.9905 18.4112 48.9905 17.8583C48.9905 17.3054 48.5356 16.8571 47.9746 16.8571C47.4135 16.8571 46.9587 17.3054 46.9587 17.8583C46.9587 18.4112 47.4135 18.8595 47.9746 18.8595Z" fill="#DD636E"/>
</svg>
