<svg width="20" height="17" viewBox="0 0 20 17" fill="none" xmlns="http://www.w3.org/2000/svg">
<path d="M9.43568 2.5113L9.99997 3.15581L10.5643 2.5113C11.4372 1.51427 12.7849 0.877686 14.1829 0.877686C16.6514 0.877686 18.5453 2.7493 18.5453 5.10023C18.5453 6.55573 17.8792 7.93861 16.5427 9.5279C15.1983 11.1266 13.2607 12.8373 10.8517 14.962L10.8506 14.963L9.99808 15.7178L9.14883 14.9716C9.14858 14.9713 9.14832 14.9711 9.14807 14.9709C6.73928 12.8418 4.80183 11.1291 3.45737 9.52922C2.1207 7.93865 1.45459 6.55574 1.45459 5.10023C1.45459 2.7493 3.34853 0.877686 5.81705 0.877686C7.21502 0.877686 8.56276 1.51427 9.43568 2.5113Z" stroke="#606483" stroke-width="1.5"/>
</svg>
