<svg width="30" height="30" viewBox="0 0 30 30" fill="none" xmlns="http://www.w3.org/2000/svg">
<g opacity="0.6">
<path d="M15.4701 15.124C12.9983 15.124 10.944 13.13 10.944 10.7704C10.944 8.32928 12.9983 6.33438 15.4709 6.33438C18.0275 6.33438 19.997 8.32843 19.997 10.7704C19.9926 11.929 19.5149 13.0385 18.6688 13.855C17.8227 14.6715 16.6775 15.1283 15.4849 15.1249L15.4701 15.124V15.124ZM15.4701 8.89877C14.4236 8.89877 13.6274 9.753 13.6274 10.7713C13.6274 11.7879 14.4236 12.5613 15.4709 12.5613C16.5602 12.5613 17.3144 11.7879 17.3144 10.7713C17.3153 9.75215 16.5602 8.89877 15.4701 8.89877ZM17.2724 18.7466L19.8299 21.1478C20.333 21.6757 20.333 22.4491 19.8299 22.9379C19.2857 23.4657 18.4466 23.4657 18.0275 22.9379L15.4709 20.4959L12.9983 22.9379C12.7472 23.1818 12.4113 23.3034 12.0333 23.3034C11.7402 23.3034 11.4051 23.181 11.1111 22.9379C10.608 22.4491 10.608 21.6757 11.1111 21.147L13.7097 18.7458C12.7712 18.4758 11.871 18.0935 11.0297 17.6077C10.4006 17.2821 10.2755 16.4687 10.6106 15.8576C11.0297 15.2473 11.7839 15.0849 12.455 15.4921C13.3637 16.0308 14.4077 16.3158 15.4722 16.3158C16.5368 16.3158 17.5808 16.0308 18.4895 15.4921C19.1606 15.0849 19.9559 15.2473 20.333 15.8576C20.711 16.4687 20.5421 17.2813 19.955 17.6077C19.1597 18.0964 18.2375 18.4627 17.2733 18.7475L17.2724 18.7466V18.7466Z" fill="#2F93E1"/>
</g>
</svg>
