<svg width="17" height="17" viewBox="0 0 17 17" fill="none" xmlns="http://www.w3.org/2000/svg">
<path d="M13.2119 8.25001C13.3226 8.05009 13.4985 7.89412 13.7102 7.80806C13.9219 7.722 14.1566 7.71104 14.3754 7.77701L14.7339 7.88501L14.8299 7.91701C15.1269 8.02565 15.3889 8.21273 15.588 8.45836C15.7872 8.70399 15.916 8.99899 15.9609 9.31201C16.1094 10.346 15.7774 11.555 14.9769 12.9415C14.1784 14.3245 13.2994 15.2155 12.3319 15.6055C12.0211 15.7308 11.6808 15.7642 11.3515 15.7017C11.0222 15.6392 10.7178 15.4835 10.4744 15.253L10.2034 14.996L10.1424 14.933C9.99173 14.763 9.90342 14.5467 9.89206 14.3197C9.8807 14.0928 9.94696 13.8688 10.0799 13.6845L10.7584 12.7445L10.8039 12.6875C10.8992 12.5795 11.0236 12.5013 11.1622 12.4621C11.3008 12.4229 11.4477 12.4244 11.5854 12.4665L12.6109 12.78L12.6374 12.785H12.6589C12.7814 12.7715 13.0304 12.524 13.3364 11.994C13.6764 11.405 13.7464 11.0605 13.6529 10.9715L13.1314 10.4855L13.0649 10.419C12.8989 10.2391 12.7895 10.0144 12.7502 9.77273C12.7109 9.5311 12.7435 9.28325 12.8439 9.06001L13.1749 8.32451L13.2119 8.25001Z" fill="#107EDC"/>
<path d="M5.0697 13.249H8.34922C8.90151 13.249 9.32788 12.7605 9.65352 12.3145C9.98639 11.8585 10.5175 11.5786 10.8561 11.287C11.8942 10.3931 10.4588 9.11945 9.08889 9.11945H7.0697C5.41285 9.11945 4.0697 10.4626 4.0697 12.1194V12.249C4.0697 12.8013 4.51742 13.249 5.0697 13.249Z" fill="#107EDC"/>
<path fill-rule="evenodd" clip-rule="evenodd" d="M1.58997 4.1048C1.58997 3.00023 2.4854 2.1048 3.58997 2.1048H13.2458C14.3503 2.1048 15.2458 3.00023 15.2458 4.1048V6.21681H14.4458V4.1048C14.4458 3.44206 13.9085 2.9048 13.2458 2.9048H3.58997C2.92722 2.9048 2.38997 3.44206 2.38997 4.1048V11.2159C2.38997 11.8787 2.92722 12.4159 3.58997 12.4159H6.41928V13.2159H3.58997C2.4854 13.2159 1.58997 12.3205 1.58997 11.2159V4.1048Z" fill="#107EDC"/>
<circle cx="7.63725" cy="6.2114" r="2.03263" fill="#107EDC"/>
</svg>
