<svg width="16" height="16" viewBox="0 0 16 16" fill="none" xmlns="http://www.w3.org/2000/svg">
<path d="M8.38478 13.859C8.66092 13.859 8.88478 13.6352 8.88478 13.359V12.5894C8.88478 12.3133 9.10864 12.0894 9.38478 12.0894H11.0392C11.3153 12.0894 11.5392 11.8656 11.5392 11.5894V10.8199C11.5392 10.5437 11.3153 10.3199 11.0392 10.3199H9.38478C9.10864 10.3199 8.88478 10.096 8.88478 9.81985V9.7126C8.88478 9.48421 9.04106 9.28842 9.25522 9.20905C9.86424 8.98333 10.3767 8.60475 10.7926 8.0733C11.2903 7.43735 11.5392 6.71154 11.5392 5.89587C11.5392 4.91891 11.1935 4.08481 10.5023 3.39356C9.81105 2.70231 8.97695 2.35669 7.99998 2.35669C7.02302 2.35669 6.18892 2.70231 5.49767 3.39356C4.80642 4.08481 4.4608 4.91891 4.4608 5.89587C4.4608 6.71154 4.70965 7.43735 5.20735 8.0733C5.62326 8.60475 6.13573 8.98333 6.74475 9.20905C6.95891 9.28842 7.11519 9.48421 7.11519 9.7126V9.81985C7.11519 10.096 6.89133 10.3199 6.61519 10.3199H4.9608C4.68466 10.3199 4.4608 10.5437 4.4608 10.8199V11.5894C4.4608 11.8656 4.68466 12.0894 4.9608 12.0894H6.61519C6.89133 12.0894 7.11519 12.3133 7.11519 12.5894V13.359C7.11519 13.6352 7.33905 13.859 7.61519 13.859H8.38478ZM7.99998 4.12628C8.48846 4.12628 8.90552 4.29909 9.25114 4.64472C9.59676 4.99034 9.76958 5.40739 9.76958 5.89587C9.76958 6.38435 9.59676 6.80141 9.25114 7.14703C8.90552 7.49265 8.48846 7.66546 7.99998 7.66546C7.5115 7.66546 7.09445 7.49265 6.74883 7.14703C6.4032 6.80141 6.23039 6.38435 6.23039 5.89587C6.23039 5.40739 6.4032 4.99034 6.74883 4.64472C7.09445 4.29909 7.5115 4.12628 7.99998 4.12628Z" fill="#1E1D2E"/>
</svg>
