<svg>
    <symbol id ="icon-sex" viewBox="0 0 16 16" fill="none" xmlns="http://www.w3.org/2000/svg">
        <path d="M8.38478 13.859C8.66092 13.859 8.88478 13.6352 8.88478 13.359V12.5894C8.88478 12.3133 9.10864 12.0894 9.38478 12.0894H11.0392C11.3153 12.0894 11.5392 11.8656 11.5392 11.5894V10.8199C11.5392 10.5437 11.3153 10.3199 11.0392 10.3199H9.38478C9.10864 10.3199 8.88478 10.096 8.88478 9.81985V9.7126C8.88478 9.48421 9.04106 9.28842 9.25522 9.20905C9.86424 8.98333 10.3767 8.60475 10.7926 8.0733C11.2903 7.43735 11.5392 6.71154 11.5392 5.89587C11.5392 4.91891 11.1935 4.08481 10.5023 3.39356C9.81105 2.70231 8.97695 2.35669 7.99998 2.35669C7.02302 2.35669 6.18892 2.70231 5.49767 3.39356C4.80642 4.08481 4.4608 4.91891 4.4608 5.89587C4.4608 6.71154 4.70965 7.43735 5.20735 8.0733C5.62326 8.60475 6.13573 8.98333 6.74475 9.20905C6.95891 9.28842 7.11519 9.48421 7.11519 9.7126V9.81985C7.11519 10.096 6.89133 10.3199 6.61519 10.3199H4.9608C4.68466 10.3199 4.4608 10.5437 4.4608 10.8199V11.5894C4.4608 11.8656 4.68466 12.0894 4.9608 12.0894H6.61519C6.89133 12.0894 7.11519 12.3133 7.11519 12.5894V13.359C7.11519 13.6352 7.33905 13.859 7.61519 13.859H8.38478ZM7.99998 4.12628C8.48846 4.12628 8.90552 4.29909 9.25114 4.64472C9.59676 4.99034 9.76958 5.40739 9.76958 5.89587C9.76958 6.38435 9.59676 6.80141 9.25114 7.14703C8.90552 7.49265 8.48846 7.66546 7.99998 7.66546C7.5115 7.66546 7.09445 7.49265 6.74883 7.14703C6.4032 6.80141 6.23039 6.38435 6.23039 5.89587C6.23039 5.40739 6.4032 4.99034 6.74883 4.64472C7.09445 4.29909 7.5115 4.12628 7.99998 4.12628Z" fill="#1E1D2E"/>
    </symbol>
    <symbol id = "icon-clock" viewBox="0 0 16 16" fill="none" xmlns="http://www.w3.org/2000/svg">
        <path d="M8 2.75C9.03835 2.75 10.0534 3.05791 10.9167 3.63478C11.7801 4.21166 12.453 5.0316 12.8504 5.99091C13.2477 6.95022 13.3517 8.00582 13.1491 9.02422C12.9465 10.0426 12.4465 10.9781 11.7123 11.7123C10.9781 12.4465 10.0426 12.9465 9.02422 13.1491C8.00582 13.3517 6.95022 13.2477 5.99091 12.8504C5.0316 12.453 4.21166 11.7801 3.63478 10.9167C3.05791 10.0534 2.75 9.03835 2.75 8C2.75 6.60761 3.30312 5.27225 4.28769 4.28769C5.27225 3.30312 6.60761 2.75 8 2.75Z" stroke="#8999A5" stroke-width="1.5"/>
        <path d="M8.03611 7.98028L8.14407 8.07221C8.1451 8.07308 8.14617 8.0739 8.14729 8.07466L10.6351 9.51099C10.6443 9.51629 10.6552 9.51773 10.6655 9.51498C10.6757 9.51224 10.6845 9.50554 10.6898 9.49636L8.03611 7.98028ZM8.03611 7.98028L7.89597 7.9587M8.03611 7.98028L7.89597 7.9587M7.89597 7.9587C7.88685 7.9573 7.87853 7.95268 7.87252 7.94568C7.86654 7.93872 7.86323 7.92986 7.86317 7.92069V5.04128C7.86317 5.03067 7.86739 5.0205 7.87489 5.013C7.88239 5.0055 7.89257 5.00128 7.90317 5.00128C7.91378 5.00128 7.92396 5.0055 7.93146 5.013C7.93896 5.0205 7.94317 5.03067 7.94317 5.04128V7.5758V7.86448M7.89597 7.9587L7.94317 7.86448M7.94317 7.86448L8.19318 8.00882M7.94317 7.86448L8.19318 8.00882M8.19318 8.00882L10.6751 9.44172M8.19318 8.00882L10.6751 9.44172M10.6751 9.44172C10.6751 9.44173 10.6751 9.44173 10.6751 9.44174M10.6751 9.44172L10.6751 9.44174M10.6751 9.44174C10.6843 9.44704 10.691 9.45577 10.6938 9.46601M10.6751 9.44174L10.6938 9.46601M10.6938 9.46601C10.6965 9.47625 10.6951 9.48716 10.6898 9.49635L10.6938 9.46601Z" stroke="#8999A5"/>
    </symbol>
    <symbol id ="icon-printer" viewBox="0 0 24 24" fill="none" xmlns="http://www.w3.org/2000/svg">
        <mask id="path-1-inside-1_1_149" fill="white">
        <path fill-rule="evenodd" clip-rule="evenodd" d="M22 8.99994V12V12.4999V16C22 17.1 21.1 18 20 18H17.755V16H11.9241H6.24769V18H4C2.9 18 2 17.1 2 16V12.4999V12V8.99994C2 7.89994 2.9 6.99994 4 6.99994H20C21.1 6.99994 22 7.89994 22 8.99994Z"/>
        </mask>
        <path d="M17.755 18H16.255V19.5H17.755V18ZM17.755 16H19.255V14.5H17.755V16ZM6.24769 16V14.5H4.74769V16H6.24769ZM6.24769 18V19.5H7.74769V18H6.24769ZM23.5 12V8.99994H20.5V12H23.5ZM23.5 12.4999V12H20.5V12.4999H23.5ZM23.5 16V12.4999H20.5V16H23.5ZM20 19.5C21.9284 19.5 23.5 17.9284 23.5 16H20.5C20.5 16.2716 20.2716 16.5 20 16.5V19.5ZM17.755 19.5H20V16.5H17.755V19.5ZM16.255 16V18H19.255V16H16.255ZM11.9241 17.5H17.755V14.5H11.9241V17.5ZM6.24769 17.5H11.9241V14.5H6.24769V17.5ZM7.74769 18V16H4.74769V18H7.74769ZM4 19.5H6.24769V16.5H4V19.5ZM0.5 16C0.5 17.9284 2.07157 19.5 4 19.5V16.5C3.72843 16.5 3.5 16.2716 3.5 16H0.5ZM0.5 12.4999V16H3.5V12.4999H0.5ZM0.5 12V12.4999H3.5V12H0.5ZM0.5 8.99994V12H3.5V8.99994H0.5ZM4 5.49994C2.07157 5.49994 0.5 7.07151 0.5 8.99994H3.5C3.5 8.72837 3.72843 8.49994 4 8.49994V5.49994ZM20 5.49994H4V8.49994H20V5.49994ZM23.5 8.99994C23.5 7.07151 21.9284 5.49994 20 5.49994V8.49994C20.2716 8.49994 20.5 8.72837 20.5 8.99994H23.5Z" fill="#606483" mask="url(#path-1-inside-1_1_149)"/>
        <path d="M5.5 3.20068H18.5V7.63836H5.5V3.20068Z" stroke="#606483" stroke-width="1.5" stroke-linecap="round" stroke-linejoin="round"/>
        <path d="M18.75 15.5001H5.25C4.85 15.5001 4.5 15.1501 4.5 14.7501C4.5 14.3501 4.85 14.0001 5.25 14.0001H18.75C19.15 14.0001 19.5 14.3501 19.5 14.7501C19.5 15.1501 19.15 15.5001 18.75 15.5001Z" fill="#606483"/>
        <path d="M5.5 15.5327H18.5V22.0006H5.5V15.5327Z" stroke="#606483" stroke-width="1.5" stroke-linecap="round" stroke-linejoin="round"/>
        <line x1="8.53891" y1="18.6538" x2="15.4611" y2="18.6538" stroke="#606483" stroke-width="1.5" stroke-linecap="round"/>
    </symbol>
    <symbol id="icon-file" viewBox="0 0 24 24" fill="none" xmlns="http://www.w3.org/2000/svg">
        <path d="M13 2H6C5.46957 2 4.96086 2.21071 4.58579 2.58579C4.21071 2.96086 4 3.46957 4 4V20C4 20.5304 4.21071 21.0391 4.58579 21.4142C4.96086 21.7893 5.46957 22 6 22H18C18.5304 22 19.0391 21.7893 19.4142 21.4142C19.7893 21.0391 20 20.5304 20 20V9L13 2Z" stroke="#606483" stroke-width="1.5" stroke-linecap="round" stroke-linejoin="round"/>
        <path d="M13 2V9H20" stroke="#606483" stroke-width="1.5" stroke-linecap="round" stroke-linejoin="round"/>
    </symbol>
    <symbol id ="icon-download" viewBox="0 0 24 24" fill="none" xmlns="http://www.w3.org/2000/svg">
        <path d="M20.0195 14.6732V18.2375C20.0195 18.7101 19.8317 19.1634 19.4975 19.4976C19.1633 19.8318 18.71 20.0196 18.2374 20.0196H5.7625C5.28985 20.0196 4.83656 19.8318 4.50235 19.4976C4.16814 19.1634 3.98038 18.7101 3.98038 18.2375V14.6732" stroke="#606483" stroke-width="1.5" stroke-linecap="round" stroke-linejoin="round"/>
        <path d="M7.54462 10.2179L11.9999 14.6732L16.4552 10.2179" stroke="#606483" stroke-width="1.5" stroke-linecap="round" stroke-linejoin="round"/>
        <path d="M11.9999 14.6732V3.98047" stroke="#606483" stroke-width="1.5" stroke-linecap="round" stroke-linejoin="round"/>
    </symbol>
    <symbol id = "icon-firm" viewBox="0 0 16 16" fill="none" xmlns="http://www.w3.org/2000/svg">
        <path d="M6.44444 15H9.55556M13.4444 15V2.55556C13.4444 2.143 13.2806 1.74733 12.9888 1.45561C12.6971 1.16389 12.3014 1 11.8889 1H4.11111C3.69855 1 3.30289 1.16389 3.01117 1.45561C2.71944 1.74733 2.55556 2.143 2.55556 2.55556V15H13.4444ZM13.4444 15H15H13.4444ZM13.4444 15H9.55556H13.4444ZM2.55556 15H1H2.55556ZM2.55556 15H6.44444H2.55556ZM5.66667 4.11111H6.44444H5.66667ZM5.66667 7.22222H6.44444H5.66667ZM9.55556 4.11111H10.3333H9.55556ZM9.55556 7.22222H10.3333H9.55556ZM6.44444 15V11.1111C6.44444 10.9048 6.52639 10.707 6.67225 10.5611C6.81811 10.4153 7.01594 10.3333 7.22222 10.3333H8.77778C8.98406 10.3333 9.18189 10.4153 9.32775 10.5611C9.47361 10.707 9.55556 10.9048 9.55556 11.1111V15H6.44444Z" stroke="#C4CDDF" stroke-width="1.5" stroke-linecap="round" stroke-linejoin="round"/>
    </symbol>
    <symbol id = "icon-job" viewBox="0 0 16 16" fill="none" xmlns="http://www.w3.org/2000/svg">
        <path d="M12.9 3.8H10.8V3.1C10.8 2.54305 10.5788 2.0089 10.1849 1.61508C9.7911 1.22125 9.25695 1 8.7 1H7.3C6.74305 1 6.2089 1.22125 5.81508 1.61508C5.42125 2.0089 5.2 2.54305 5.2 3.1V3.8H3.1C2.54305 3.8 2.0089 4.02125 1.61508 4.41508C1.22125 4.8089 1 5.34305 1 5.9V12.2C1 12.757 1.22125 13.2911 1.61508 13.6849C2.0089 14.0788 2.54305 14.3 3.1 14.3H12.9C13.457 14.3 13.9911 14.0788 14.3849 13.6849C14.7788 13.2911 15 12.757 15 12.2V5.9C15 5.34305 14.7788 4.8089 14.3849 4.41508C13.9911 4.02125 13.457 3.8 12.9 3.8ZM6.6 3.1C6.6 2.91435 6.67375 2.7363 6.80503 2.60503C6.9363 2.47375 7.11435 2.4 7.3 2.4H8.7C8.88565 2.4 9.0637 2.47375 9.19497 2.60503C9.32625 2.7363 9.4 2.91435 9.4 3.1V3.8H6.6V3.1ZM13.6 12.2C13.6 12.3857 13.5263 12.5637 13.395 12.695C13.2637 12.8263 13.0857 12.9 12.9 12.9H3.1C2.91435 12.9 2.7363 12.8263 2.60503 12.695C2.47375 12.5637 2.4 12.3857 2.4 12.2V8.665H4.5V9.4C4.5 9.58565 4.57375 9.7637 4.70503 9.89497C4.8363 10.0262 5.01435 10.1 5.2 10.1C5.38565 10.1 5.5637 10.0262 5.69497 9.89497C5.82625 9.7637 5.9 9.58565 5.9 9.4V8.665H10.1V9.4C10.1 9.58565 10.1737 9.7637 10.305 9.89497C10.4363 10.0262 10.6143 10.1 10.8 10.1C10.9857 10.1 11.1637 10.0262 11.295 9.89497C11.4263 9.7637 11.5 9.58565 11.5 9.4V8.665H13.6V12.2ZM13.6 7.3H2.4V5.9C2.4 5.71435 2.47375 5.5363 2.60503 5.40503C2.7363 5.27375 2.91435 5.2 3.1 5.2H12.9C13.0857 5.2 13.2637 5.27375 13.395 5.40503C13.5263 5.5363 13.6 5.71435 13.6 5.9V7.3Z" fill="#C4CDDF"/>
    </symbol>
    <symbol id = "icon-like"  viewBox="0 0 20 17"  xmlns="http://www.w3.org/2000/svg">
        <path d="M9.43568 2.5113L9.99997 3.15581L10.5643 2.5113C11.4372 1.51427 12.7849 0.877686 14.1829 0.877686C16.6514 0.877686 18.5453 2.7493 18.5453 5.10023C18.5453 6.55573 17.8792 7.93861 16.5427 9.5279C15.1983 11.1266 13.2607 12.8373 10.8517 14.962L10.8506 14.963L9.99808 15.7178L9.14883 14.9716C9.14858 14.9713 9.14832 14.9711 9.14807 14.9709C6.73928 12.8418 4.80183 11.1291 3.45737 9.52922C2.1207 7.93865 1.45459 6.55574 1.45459 5.10023C1.45459 2.7493 3.34853 0.877686 5.81705 0.877686C7.21502 0.877686 8.56276 1.51427 9.43568 2.5113Z"  stroke-width="1.5"/>
    </symbol>
    <symbol id = "icon-interview" viewBox="0 0 60 45" fill="none" xmlns="http://www.w3.org/2000/svg">
        <ellipse cx="30.7355" cy="22.1833" rx="22.3235" ry="22" fill="#E7EEF6"/>
        <path d="M48.9498 32.0799V14.001C48.9498 13.1963 48.2871 12.5378 47.4772 12.5378H23.9616C23.1516 12.5378 22.489 13.1963 22.489 14.001V32.0891H48.9498V32.0799Z" fill="#7991BE"/>
        <path d="M51.4805 12.5378H46.9799C47.7898 12.5378 48.4525 13.1963 48.4525 14.001V32.0891H52.9531V14.001C52.9531 13.1871 52.2996 12.5378 51.4805 12.5378Z" fill="#606483"/>
        <path d="M48.9491 15.3638H26.3079C25.7649 15.3638 25.3323 15.7936 25.3323 16.3331V31.1931H48.9491V15.3638Z" fill="white"/>
        <path d="M50.1093 31.184V16.3331C50.1093 15.7936 49.6675 15.3638 49.1337 15.3638H48.4526V31.1931H50.1093V31.184Z" fill="#F3F6F8"/>
        <path d="M51.1493 32.9029V31.1837H20.9425C20.4547 31.1837 20.059 31.5769 20.059 32.0616C20.059 33.7991 21.4763 35.2074 23.2251 35.2074H48.8299C50.1092 35.2165 51.1493 34.1832 51.1493 32.9029Z" fill="#7991BE"/>
        <path d="M54.4994 31.1837H50.8823V32.9029C50.8823 34.174 49.8423 35.2074 48.563 35.2074H52.2169C53.9656 35.2074 55.383 33.7991 55.383 32.0616C55.383 31.5769 54.9872 31.1837 54.4994 31.1837Z" fill="#606483"/>
        <path d="M32.3369 31.1837C32.3369 32.2994 33.248 33.1955 34.3617 33.1955H41.0712C42.1941 33.1955 43.096 32.2902 43.096 31.1837H32.3369Z" fill="#606483"/>
        <path d="M40.3193 16.4061H38.3424C37.3631 16.4061 36.5669 17.1908 36.5669 18.1559V19.8426L36.9238 20.0951H40.4749V16.6677L40.3193 16.4061Z" fill="#F9CC5D"/>
        <path d="M44.2088 25.5158L41.6737 24.7852H37.7108L35.1756 25.5158C34.2696 25.7774 33.6472 26.5981 33.6472 27.5362V31.0899H45.7464V27.5362C45.7372 26.5981 45.1149 25.7774 44.2088 25.5158Z" fill="#E7EEF6"/>
        <path d="M44.2089 25.5158L41.6737 24.7852H39.706L39.7243 25.7774L41.7103 26.3817C42.6164 26.6432 43.2387 27.464 43.2387 28.402V31.0989H45.7373V27.5452C45.7373 26.5981 45.1149 25.7774 44.2089 25.5158Z" fill="#D8DEEB"/>
        <path d="M40.0808 27.1936H39.312L38.6165 31.072V31.081H40.7764L40.0808 27.1936Z" fill="#606483"/>
        <path d="M41.0885 24.9477V22.7469H38.3062V24.9477C38.3062 25.7053 39.6973 25.7684 39.6973 25.7684C39.6973 25.7684 41.0885 25.7053 41.0885 24.9477Z" fill="#FFDDCE"/>
        <path d="M44.0258 31.081V29.8633C44.0258 29.701 43.8977 29.5747 43.7329 29.5747C43.5682 29.5747 43.4401 29.701 43.4401 29.8633V31.081H44.0258Z" fill="#B9CBEA"/>
        <path d="M42.049 17.4252H42.0215C41.8751 17.4252 41.7653 17.308 41.7653 17.1727C41.7653 16.7578 41.4175 16.415 40.9965 16.415H40.3192V20.104H42.4608L42.8177 19.8515V18.1919C42.8177 17.768 42.47 17.4252 42.049 17.4252Z" fill="#F7BD3C"/>
        <path d="M37.7565 24.6319L37.3629 24.8033C37.1341 24.9025 37.0792 25.2002 37.2531 25.3715L38.3514 26.4539C38.4887 26.5892 38.7083 26.5982 38.8547 26.4719L39.715 25.7594L38.2507 24.677C38.1134 24.5868 37.9212 24.5598 37.7565 24.6319Z" fill="#B9CBEA"/>
        <path d="M41.1242 24.6951L39.7147 25.7684L40.5201 26.4539C40.6665 26.5802 40.8862 26.5711 41.0326 26.4359L42.1309 25.3806C42.3139 25.2092 42.259 24.9116 42.0302 24.8123L41.6275 24.6319C41.4628 24.5598 41.2706 24.5868 41.1242 24.6951Z" fill="#B9CBEA"/>
        <path d="M39.724 25.7684L38.8729 26.4629L39.303 27.1935H40.0718L40.502 26.4268L39.724 25.7684Z" fill="#606483"/>
        <path d="M35.9538 31.081V29.8633C35.9538 29.701 35.8257 29.5747 35.661 29.5747C35.4962 29.5747 35.3681 29.701 35.3681 29.8633V31.081H35.9538Z" fill="#B9CBEA"/>
        <path d="M40.4749 21.3758V18.6339C39.7793 18.7602 39.0563 18.7151 38.379 18.4986C38.0129 18.3813 37.6377 18.6519 37.6377 19.0307V19.3194C37.6377 19.608 37.3997 19.8515 37.0977 19.8515H36.5669V20.7174C36.5669 20.9339 36.7499 21.1143 36.9696 21.1143C37.0428 21.1143 37.0977 21.1684 37.0977 21.2405C37.1709 22.4131 38.0495 23.3691 39.1936 23.5856C39.9532 23.1166 40.4566 22.3048 40.4749 21.3758Z" fill="#FFDDCE"/>
        <path d="M42.2866 19.8425C41.9937 19.8425 41.7466 19.608 41.7466 19.3103V19.0217C41.7466 18.6429 41.3714 18.3723 41.0053 18.4896C40.7765 18.5617 40.5477 18.6158 40.3189 18.6519V21.3307C40.3006 22.2687 39.7698 23.0895 38.9918 23.5225C39.2115 23.5856 39.4494 23.6126 39.6874 23.6126C41.0602 23.6126 42.1859 22.5574 42.2775 21.2225C42.2775 21.1503 42.3415 21.0962 42.4056 21.0962C42.6252 21.0962 42.8083 20.9158 42.8083 20.6993V19.8425H42.2866Z" fill="#FFCBBE"/>
        <path d="M39.4235 10.5992H38.2546V12.5287H39.4235V10.5992Z" fill="#606483"/>
        <path d="M41.4391 9.429C41.4391 10.8556 40.2703 12.0169 38.8345 12.0169C37.3987 12.0169 36.2298 10.8556 36.2298 9.429C36.2298 8.00243 37.3987 6.84106 38.8345 6.84106C40.2795 6.84106 41.4391 7.99329 41.4391 9.429Z" fill="#B6C2DA"/>
        <path d="M40.0495 9.42853C40.0495 10.0961 39.5065 10.6356 38.8346 10.6356C38.1627 10.6356 37.6197 10.0961 37.6197 9.42853C37.6197 8.76097 38.1627 8.22144 38.8346 8.22144C39.5065 8.22144 40.0495 8.76097 40.0495 9.42853Z" fill="#606483"/>
        <path d="M39.4143 9.42859C39.4143 9.74865 39.1565 10.0047 38.8344 10.0047C38.5123 10.0047 38.2546 9.74865 38.2546 9.42859C38.2546 9.10853 38.5123 8.85248 38.8344 8.85248C39.1565 8.85248 39.4143 9.10853 39.4143 9.42859Z" fill="#1E1D2E"/>
        <path opacity="0.7" d="M39.4871 8.98968C39.4871 9.10856 39.3952 9.20001 39.2758 9.20001C39.1565 9.20001 39.0646 9.10856 39.0646 8.98968C39.0646 8.8708 39.1565 8.77936 39.2758 8.77936C39.3952 8.77936 39.4871 8.8708 39.4871 8.98968Z" fill="white"/>
        <path opacity="0.1" d="M41.4391 9.42881C41.4391 8.00225 40.2702 6.84088 38.8344 6.84088V12.0167C40.2794 12.0167 41.4391 10.8554 41.4391 9.42881Z" fill="#D8DEEB"/>
        <path d="M26.2582 8.11627H22.0371C20.2327 8.11627 18.7678 9.56003 18.7678 11.3382V14.446L21.5156 19.5195L26.6141 20.1557V9.02168L26.2582 8.11627Z" fill="#CB7B4F"/>
        <path d="M28.8827 9.99234H28.8331C28.5682 9.99234 28.353 9.78026 28.353 9.51924C28.353 8.74435 27.7157 8.11627 26.9294 8.11627H26.2507V20.0905L28.3034 19.2014L30.2898 14.446V11.3872C30.2981 10.6123 29.6608 9.99234 28.8827 9.99234Z" fill="#B65D37"/>
        <path d="M33.5497 29.2179C33.5497 27.6926 32.5482 26.3467 31.0749 25.8899L27.0863 23.9486L25.5634 23.3613L24.5371 23.3287L19.7779 23.4918L15.4244 24.854C13.9428 25.3108 12.9413 26.6648 12.9413 28.182V39.9691C12.9413 40.6788 13.5207 41.2498 14.2408 41.2498H33.5497V29.2179Z" fill="#FFA04F"/>
        <path d="M33.6496 24.854L29.2961 23.4918L25.2487 23.3531L23.5685 23.0269L30.5686 26.1428C32.0419 26.5995 33.0434 27.9536 33.0434 29.4707V41.2756H34.8249C35.545 41.2756 36.1244 40.7047 36.1244 39.995V28.182C36.1244 26.6648 35.1229 25.3108 33.6496 24.854Z" fill="#EF8B35"/>
        <path d="M27.2021 23.2388V19.919H21.8636V23.2388L24.5287 23.3286L27.2021 23.2388Z" fill="#FFCBBE"/>
        <path d="M27.8805 18.9894C26.9121 18.9894 22.2688 19.2015 21.8798 18.916H21.9129C21.2342 18.6958 19.7527 14.4461 19.7527 14.4461H18.7678V16.0367C18.7678 16.4445 19.0988 16.7708 19.5127 16.7708C19.6451 16.7708 19.7527 16.8687 19.761 16.9992C19.8934 19.1118 21.4412 20.8492 23.4772 21.2978C25.2898 20.6045 27.8805 18.9894 27.8805 18.9894Z" fill="#FFCBBE"/>
        <path d="M29.321 14.4461C29.321 14.4461 28.4189 18.8834 27.3925 19.0221C27.136 19.0547 25.3482 19.1444 25.1164 19.2015C25.1164 19.2015 24.8764 20.5556 23.0059 21.1755C23.4859 21.3386 23.9991 21.4202 24.5371 21.4202C27.078 21.4202 29.1555 19.4707 29.3128 17.0073C29.321 16.8768 29.4286 16.779 29.5611 16.779C29.9749 16.779 30.306 16.4527 30.306 16.0448V14.4461H29.321Z" fill="#FFCBBE"/>
        <path d="M24.5284 25.2619L23.1048 26.4691C22.7572 26.7709 22.2192 26.7138 21.9378 26.3467L19.761 23.4837L20.5473 22.8067C20.928 22.4804 21.5074 22.4886 21.8798 22.8311L24.5284 25.2619Z" fill="#FFA04F"/>
        <path d="M24.6362 21.5179L24.4707 23.1411C24.4873 23.5979 25.1246 23.9486 25.5881 23.8997L29.1967 23.5245L29.1636 22.4967C29.1471 21.991 28.7498 21.5831 28.2449 21.5505L24.6362 21.5179Z" fill="#EF8B35"/>
        <path d="M21.0358 21.5423C20.5309 21.5831 20.1253 21.991 20.117 22.4885L20.0839 23.5163L23.6926 23.8915C24.1561 23.9404 24.661 23.5897 24.6775 23.1329L24.6444 21.5097L21.0358 21.5423Z" fill="#FFA04F"/>
        <path d="M30.5156 33.7967C30.5156 33.5436 30.7207 33.3385 30.9738 33.3385C31.2268 33.3385 31.4319 33.5436 31.4319 33.7967V41.2497H30.5156V33.7967Z" fill="#EF8B35"/>
        <path d="M16.8424 33.8226C16.8424 33.5696 17.0475 33.3644 17.3006 33.3644C17.5536 33.3644 17.7587 33.5696 17.7587 33.8226V41.2756H16.8424V33.8226Z" fill="#EF8B35"/>
        <path d="M47.9746 18.8595C48.5356 18.8595 48.9905 18.4112 48.9905 17.8583C48.9905 17.3054 48.5356 16.8571 47.9746 16.8571C47.4135 16.8571 46.9587 17.3054 46.9587 17.8583C46.9587 18.4112 47.4135 18.8595 47.9746 18.8595Z" fill="#DD636E"/>
    </symbol>
    <symbol id = "icon-services" viewBox="0 0 17 17" fill="none" xmlns="http://www.w3.org/2000/svg">
        <path d="M13.2119 8.25001C13.3226 8.05009 13.4985 7.89412 13.7102 7.80806C13.9219 7.722 14.1566 7.71104 14.3754 7.77701L14.7339 7.88501L14.8299 7.91701C15.1269 8.02565 15.3889 8.21273 15.588 8.45836C15.7872 8.70399 15.916 8.99899 15.9609 9.31201C16.1094 10.346 15.7774 11.555 14.9769 12.9415C14.1784 14.3245 13.2994 15.2155 12.3319 15.6055C12.0211 15.7308 11.6808 15.7642 11.3515 15.7017C11.0222 15.6392 10.7178 15.4835 10.4744 15.253L10.2034 14.996L10.1424 14.933C9.99173 14.763 9.90342 14.5467 9.89206 14.3197C9.8807 14.0928 9.94696 13.8688 10.0799 13.6845L10.7584 12.7445L10.8039 12.6875C10.8992 12.5795 11.0236 12.5013 11.1622 12.4621C11.3008 12.4229 11.4477 12.4244 11.5854 12.4665L12.6109 12.78L12.6374 12.785H12.6589C12.7814 12.7715 13.0304 12.524 13.3364 11.994C13.6764 11.405 13.7464 11.0605 13.6529 10.9715L13.1314 10.4855L13.0649 10.419C12.8989 10.2391 12.7895 10.0144 12.7502 9.77273C12.7109 9.5311 12.7435 9.28325 12.8439 9.06001L13.1749 8.32451L13.2119 8.25001Z" fill="#107EDC"/>
        <path d="M5.0697 13.249H8.34922C8.90151 13.249 9.32788 12.7605 9.65352 12.3145C9.98639 11.8585 10.5175 11.5786 10.8561 11.287C11.8942 10.3931 10.4588 9.11945 9.08889 9.11945H7.0697C5.41285 9.11945 4.0697 10.4626 4.0697 12.1194V12.249C4.0697 12.8013 4.51742 13.249 5.0697 13.249Z" fill="#107EDC"/>
        <path fill-rule="evenodd" clip-rule="evenodd" d="M1.58997 4.1048C1.58997 3.00023 2.4854 2.1048 3.58997 2.1048H13.2458C14.3503 2.1048 15.2458 3.00023 15.2458 4.1048V6.21681H14.4458V4.1048C14.4458 3.44206 13.9085 2.9048 13.2458 2.9048H3.58997C2.92722 2.9048 2.38997 3.44206 2.38997 4.1048V11.2159C2.38997 11.8787 2.92722 12.4159 3.58997 12.4159H6.41928V13.2159H3.58997C2.4854 13.2159 1.58997 12.3205 1.58997 11.2159V4.1048Z" fill="#107EDC"/>
        <circle cx="7.63725" cy="6.2114" r="2.03263" fill="#107EDC"/>
    </symbol>
    <symbol id = "icon-answer" viewBox="0 0 15 15" fill="none" xmlns="http://www.w3.org/2000/svg">
        <path d="M6.22735 0.52002C5.32721 0.52002 4.46394 0.877598 3.82745 1.51409C3.19095 2.15059 2.83337 3.01386 2.83337 3.914C2.83337 4.81413 3.19095 5.67741 3.82745 6.3139C4.46394 6.95039 5.32721 7.30797 6.22735 7.30797C7.12749 7.30797 7.99076 6.95039 8.62725 6.3139C9.26375 5.67741 9.62133 4.81413 9.62133 3.914C9.62133 3.01386 9.26375 2.15059 8.62725 1.51409C7.99076 0.877598 7.12749 0.52002 6.22735 0.52002Z" fill="white"/>
        <path d="M1.99247 8.15645C1.769 8.15555 1.54756 8.19878 1.34084 8.28365C1.13412 8.36852 0.946192 8.49337 0.787825 8.65103C0.629457 8.80868 0.503771 8.99605 0.417972 9.20239C0.332174 9.40873 0.287952 9.62997 0.287842 9.85343C0.287842 11.2882 0.994637 12.3701 2.09938 13.0752C3.18715 13.7684 4.65334 14.0959 6.2273 14.0959C6.57518 14.0959 6.91967 14.0798 7.25398 14.0475C6.58785 13.2198 6.2255 12.1887 6.2273 11.1262C6.2273 9.99768 6.62779 8.96252 7.29386 8.15645H1.99331H1.99247Z" fill="white"/>
        <path d="M10.8941 14.9444C11.9067 14.9444 12.8779 14.5422 13.594 13.8261C14.31 13.11 14.7123 12.1389 14.7123 11.1262C14.7123 10.1136 14.31 9.14237 13.594 8.42632C12.8779 7.71026 11.9067 7.30798 10.8941 7.30798C9.88143 7.30798 8.91025 7.71026 8.1942 8.42632C7.47814 9.14237 7.07587 10.1136 7.07587 11.1262C7.07587 12.1389 7.47814 13.11 8.1942 13.8261C8.91025 14.5422 9.88143 14.9444 10.8941 14.9444ZM10.8941 9.00497C11.0066 9.00497 11.1145 9.04967 11.1941 9.12923C11.2736 9.20879 11.3183 9.3167 11.3183 9.42922V10.702H12.5911C12.7036 10.702 12.8115 10.7467 12.8911 10.8262C12.9706 10.9058 13.0153 11.0137 13.0153 11.1262C13.0153 11.2387 12.9706 11.3466 12.8911 11.4262C12.8115 11.5058 12.7036 11.5505 12.5911 11.5505H11.3183V12.8232C11.3183 12.9357 11.2736 13.0436 11.1941 13.1232C11.1145 13.2027 11.0066 13.2474 10.8941 13.2474C10.7816 13.2474 10.6737 13.2027 10.5941 13.1232C10.5145 13.0436 10.4698 12.9357 10.4698 12.8232V11.5505H9.1971C9.08458 11.5505 8.97668 11.5058 8.89711 11.4262C8.81755 11.3466 8.77286 11.2387 8.77286 11.1262C8.77286 11.0137 8.81755 10.9058 8.89711 10.8262C8.97668 10.7467 9.08458 10.702 9.1971 10.702H10.4698V9.42922C10.4698 9.3167 10.5145 9.20879 10.5941 9.12923C10.6737 9.04967 10.7816 9.00497 10.8941 9.00497Z" fill="white"/>
    </symbol>

    <symbol id = "icon-colls" viewBox="0 0 13 13" fill="none" xmlns="http://www.w3.org/2000/svg">
        <path d="M3.27811 1.90819C3.27811 1.90819 3.9299 1.46307 4.38733 1.51174C5.00412 1.57736 5.38473 1.93646 5.83724 2.60112C6.22259 3.16714 6.46264 4.0267 6.36082 4.41047C6.17037 5.12832 4.88651 5.61178 4.88651 5.61178C4.77581 5.75099 5.2614 6.67513 5.83724 7.41437C6.35548 8.07956 6.98942 8.6303 7.15916 8.62547L7.1885 8.62138L7.22371 8.60953C7.22371 8.60953 7.97224 7.85953 8.82083 7.55963C9.23184 7.41437 9.75562 7.89768 10.2339 8.39669C11.0538 9.25207 11.2362 9.41636 11.0538 10.1495C10.9497 10.5676 10.6151 11.0926 10.6151 11.0926C10.3267 11.4533 9.94085 11.7236 9.50334 11.8714C9.06583 12.0192 8.59508 12.0383 8.14706 11.9263C6.75266 11.5778 5.3839 10.5288 4.03158 8.79302C2.67587 7.05287 1.99322 5.46599 1.99953 4.0267C2.00136 3.59101 2.12122 3.16395 2.34635 2.79092C2.57148 2.4179 2.89347 2.11284 3.27811 1.90819Z" fill="#7CC076"/>
    </symbol>
    
    <symbol id="icon-tiktok" viewBox="0 0 30 30" fill="none" xmlns="http://www.w3.org/2000/svg">
        <path d="M14.7914 6.34873C15.6984 6.33438 16.6001 6.34288 17.5009 6.33438C17.5554 7.41868 17.9369 8.52317 18.7134 9.28978C19.4884 10.0755 20.5845 10.4352 21.6511 10.5568V13.4092C20.6516 13.3757 19.6474 13.1632 18.7405 12.7233C18.3455 12.5405 17.9775 12.3052 17.6173 12.0645C17.6126 14.1343 17.6256 16.2015 17.6043 18.2627C17.5502 19.253 17.2306 20.2385 16.6672 21.0545C15.7607 22.4129 14.1875 23.2985 12.5716 23.3262C11.5804 23.3841 10.5903 23.1078 9.74567 22.5989C8.34599 21.7552 7.36106 20.2109 7.21761 18.5533C7.19954 18.2023 7.19676 17.8506 7.20929 17.4993C7.33403 16.1515 7.98632 14.8622 8.99879 13.985C10.1464 12.9634 11.754 12.4768 13.2592 12.7647C13.2732 13.814 13.2322 14.8622 13.2322 15.9114C12.5445 15.684 11.741 15.7478 11.1402 16.1744C10.7006 16.4704 10.3684 16.9059 10.1947 17.4138C10.0513 17.7729 10.0923 18.1719 10.1007 18.5533C10.2654 19.7157 11.359 20.6927 12.5263 20.587C13.3002 20.5785 14.0419 20.1195 14.4453 19.4474C14.5757 19.2121 14.7218 18.9714 14.7296 18.6947C14.7976 17.4276 14.7706 16.1659 14.7789 14.8988C14.7847 12.0433 14.7706 9.19574 14.7919 6.34926L14.7914 6.34873Z" fill="#2F93E1"/>
    </symbol>
    
    <symbol id="icon-fb" viewBox="0 0 30 30" fill="none" xmlns="http://www.w3.org/2000/svg">
        <path d="M15.6095 22.9354V15.5808H18.1103L18.4821 12.7013H15.6095V10.8672C15.6095 10.0362 15.8428 9.46733 17.0449 9.46733H18.568V6.90006C17.8269 6.82127 17.082 6.78322 16.3367 6.7861C14.1261 6.7861 12.6084 8.12492 12.6084 10.5827V12.6959H10.1238V15.5755H12.6138V22.9354H15.6095Z" fill="#2F93E1"/>
    </symbol>

    <symbol id="icon-insta" viewBox="0 0 30 30" fill="none" xmlns="http://www.w3.org/2000/svg">
        <path d="M15.4423 11.5926C13.8035 11.5926 12.4662 12.9299 12.4662 14.5687C12.4662 16.2074 13.8035 17.5448 15.4423 17.5448C17.0811 17.5448 18.4184 16.2074 18.4184 14.5687C18.4184 12.9299 17.0811 11.5926 15.4423 11.5926ZM24.3684 14.5687C24.3684 13.3363 24.3795 12.115 24.3103 10.8848C24.2411 9.45594 23.9152 8.1878 22.8703 7.14293C21.8232 6.09582 20.5573 5.77209 19.1284 5.70288C17.896 5.63367 16.6747 5.64483 15.4445 5.64483C14.2121 5.64483 12.9909 5.63367 11.7607 5.70288C10.3318 5.77209 9.06366 6.09805 8.01878 7.14293C6.97168 8.19004 6.64794 9.45594 6.57873 10.8848C6.50952 12.1172 6.52068 13.3385 6.52068 14.5687C6.52068 15.7989 6.50952 17.0223 6.57873 18.2525C6.64794 19.6814 6.97391 20.9496 8.01878 21.9944C9.06589 23.0415 10.3318 23.3653 11.7607 23.4345C12.9931 23.5037 14.2143 23.4925 15.4445 23.4925C16.6769 23.4925 17.8982 23.5037 19.1284 23.4345C20.5573 23.3653 21.8254 23.0393 22.8703 21.9944C23.9174 20.9473 24.2411 19.6814 24.3103 18.2525C24.3818 17.0223 24.3684 15.8011 24.3684 14.5687ZM15.4423 19.1478C12.9083 19.1478 10.8632 17.1027 10.8632 14.5687C10.8632 12.0346 12.9083 9.98954 15.4423 9.98954C17.9763 9.98954 20.0214 12.0346 20.0214 14.5687C20.0214 17.1027 17.9763 19.1478 15.4423 19.1478ZM20.209 10.8714C19.6173 10.8714 19.1395 10.3936 19.1395 9.802C19.1395 9.21035 19.6173 8.73257 20.209 8.73257C20.8006 8.73257 21.2784 9.21035 21.2784 9.802C21.2786 9.94249 21.251 10.0816 21.1974 10.2115C21.1437 10.3413 21.0649 10.4593 20.9656 10.5586C20.8662 10.6579 20.7483 10.7367 20.6184 10.7904C20.4886 10.8441 20.3495 10.8716 20.209 10.8714Z" fill="#2F93E1"/>
    </symbol>

    <symbol id="icon-ok" viewBox="0 0 30 30" fill="none" xmlns="http://www.w3.org/2000/svg">
        <path d="M15.4701 15.124C12.9983 15.124 10.944 13.13 10.944 10.7704C10.944 8.32928 12.9983 6.33438 15.4709 6.33438C18.0275 6.33438 19.997 8.32843 19.997 10.7704C19.9926 11.929 19.5149 13.0385 18.6688 13.855C17.8227 14.6715 16.6775 15.1283 15.4849 15.1249L15.4701 15.124V15.124ZM15.4701 8.89877C14.4236 8.89877 13.6274 9.753 13.6274 10.7713C13.6274 11.7879 14.4236 12.5613 15.4709 12.5613C16.5602 12.5613 17.3144 11.7879 17.3144 10.7713C17.3153 9.75215 16.5602 8.89877 15.4701 8.89877ZM17.2724 18.7466L19.8299 21.1478C20.333 21.6757 20.333 22.4491 19.8299 22.9379C19.2857 23.4657 18.4466 23.4657 18.0275 22.9379L15.4709 20.4959L12.9983 22.9379C12.7472 23.1818 12.4113 23.3034 12.0333 23.3034C11.7402 23.3034 11.4051 23.181 11.1111 22.9379C10.608 22.4491 10.608 21.6757 11.1111 21.147L13.7097 18.7458C12.7712 18.4758 11.871 18.0935 11.0297 17.6077C10.4006 17.2821 10.2755 16.4687 10.6106 15.8576C11.0297 15.2473 11.7839 15.0849 12.455 15.4921C13.3637 16.0308 14.4077 16.3158 15.4722 16.3158C16.5368 16.3158 17.5808 16.0308 18.4895 15.4921C19.1606 15.0849 19.9559 15.2473 20.333 15.8576C20.711 16.4687 20.5421 17.2813 19.955 17.6077C19.1597 18.0964 18.2375 18.4627 17.2733 18.7475L17.2724 18.7466V18.7466Z" fill="#2F93E1"/>
    </symbol>

    <symbol id="icon-tg" viewBox="0 0 30 30" fill="none" xmlns="http://www.w3.org/2000/svg">
        <path d="M22.3272 6.89214L5.87146 13.4697C4.74843 13.9372 4.75492 14.5866 5.66542 14.8762L9.89027 16.2423L19.6653 9.84948C20.1275 9.55798 20.5498 9.71479 20.2027 10.0342L12.283 17.443H12.2811L12.283 17.4439L11.9916 21.9579C12.4185 21.9579 12.6069 21.7549 12.8464 21.5153L14.8985 19.4469L19.1669 22.715C19.954 23.1643 20.5192 22.9334 20.715 21.9598L23.5171 8.27172C23.8039 7.07974 23.0781 6.54003 22.3272 6.89214V6.89214Z" fill="#2F93E1"/>
    </symbol>

    <symbol id="icon-youtube" viewBox="0 0 30 30" fill="none" xmlns="http://www.w3.org/2000/svg">
        <path d="M23.5747 10.4592C23.4689 10.0989 23.2626 9.77266 22.978 9.51523C22.6853 9.24989 22.3266 9.06009 21.9356 8.96373C20.4726 8.59582 14.6112 8.59582 14.6112 8.59582C12.1676 8.56929 9.72463 8.68596 7.29605 8.94515C6.90513 9.04862 6.54706 9.24267 6.2537 9.51003C5.96546 9.77463 5.75668 10.1009 5.64762 10.4584C5.38562 11.805 5.25833 13.1723 5.26745 14.5419C5.2581 15.9103 5.38508 17.2771 5.64762 18.6254C5.75434 18.9814 5.96235 19.3062 6.25137 19.5686C6.54039 19.831 6.9003 20.0205 7.29605 20.1208C8.77855 20.488 14.6112 20.488 14.6112 20.488C17.0579 20.5146 19.5039 20.3979 21.9356 20.1387C22.3266 20.0423 22.6853 19.8525 22.978 19.5872C23.2662 19.3248 23.4711 18.9985 23.574 18.6432C23.8428 17.2971 23.9735 15.9293 23.9643 14.559C23.9845 13.1829 23.8539 11.8094 23.5747 10.4592ZM12.7477 17.0868V11.9977L17.6245 14.5427L12.7477 17.0868Z" fill="#2F93E1"/>
    </symbol>

    <symbol id="icon-vk" viewBox="0 0 30 30" fill="none" xmlns="http://www.w3.org/2000/svg">
        <path d="M8.62136 9.04367H5.27563C5.43437 16.4764 9.24411 20.9432 15.9233 20.9432H16.3019V16.6908C18.7562 16.9291 20.6122 18.6801 21.3571 20.9432H24.8249C23.8725 17.5604 21.3693 15.6903 19.8063 14.9756C21.3693 14.0941 23.5672 11.9501 24.0923 9.04367H20.9419C20.2581 11.4021 18.2312 13.5462 16.3019 13.7487V9.04367H13.1515V17.2864C11.1978 16.81 8.73126 14.4991 8.62136 9.04367Z" fill="#2F93E1"/>
    </symbol>

    <symbol id="icon-twitter" viewBox="0 0 30 30" fill="none" xmlns="http://www.w3.org/2000/svg">
        <path d="M24.4548 9.1531C23.7672 9.47682 23.0284 9.69554 22.2518 9.79441C23.0531 9.28503 23.6526 8.48334 23.9385 7.53891C23.1856 8.01397 22.3617 8.34836 21.5024 8.52755C20.9246 7.87213 20.1593 7.4377 19.3252 7.29173C18.4912 7.14575 17.6352 7.29638 16.89 7.72023C16.1448 8.14409 15.5522 8.81746 15.2041 9.63579C14.8561 10.4541 14.7721 11.3716 14.9652 12.2459C13.4397 12.1645 11.9474 11.7433 10.5851 11.0096C9.22278 10.2758 8.02092 9.24598 7.05751 7.98686C6.72809 8.59054 6.53868 9.29046 6.53868 10.0359C6.53831 10.7069 6.69386 11.3677 6.99153 11.9596C7.28919 12.5514 7.71977 13.0561 8.24506 13.4288C7.63586 13.4082 7.04011 13.2333 6.50739 12.9187V12.9712C6.50732 13.9123 6.81377 14.8246 7.37473 15.553C7.93568 16.2815 8.71659 16.7813 9.58496 16.9677C9.01983 17.1302 8.42734 17.1542 7.85223 17.0377C8.09723 17.8475 8.57447 18.5557 9.21714 19.0631C9.85981 19.5704 10.6357 19.8516 11.4363 19.8672C10.0773 21.0005 8.39897 21.6153 6.67127 21.6126C6.36523 21.6127 6.05944 21.5937 5.75549 21.5557C7.5092 22.7536 9.55065 23.3894 11.6356 23.3869C18.6933 23.3869 22.5516 17.1768 22.5516 11.7909C22.5516 11.616 22.5475 11.4392 22.5401 11.2642C23.2906 10.6877 23.9384 9.97367 24.4532 9.15573L24.4548 9.1531Z" fill="#2F93E1"/>
    </symbol>

    <symbol id="icon-watch" viewBox="0 0 16 16" fill="none" xmlns="http://www.w3.org/2000/svg">
        <path d="M11.6112 2.59545C10.5423 1.88122 9.28558 1.5 8 1.5C6.27609 1.5 4.62279 2.18482 3.40381 3.40381C2.18482 4.62279 1.5 6.27609 1.5 8C1.5 9.28558 1.88122 10.5423 2.59545 11.6112C3.30968 12.6801 4.32484 13.5132 5.51256 14.0052C6.70028 14.4972 8.00721 14.6259 9.26809 14.3751C10.529 14.1243 11.6872 13.5052 12.5962 12.5962C13.5052 11.6872 14.1243 10.529 14.3751 9.26809C14.6259 8.00721 14.4972 6.70028 14.0052 5.51256C13.5132 4.32484 12.6801 3.30968 11.6112 2.59545Z" stroke="#FFA438"/>
        <path d="M8.06885 7.57592V7.79204L8.25601 7.90009L10.738 9.333C10.738 9.333 10.738 9.33301 10.738 9.33301C10.776 9.35498 10.8038 9.39117 10.8151 9.43361C10.8265 9.47605 10.8206 9.52127 10.7986 9.55933C10.7766 9.59738 10.7404 9.62514 10.698 9.63651C10.6556 9.64788 10.6103 9.64193 10.5723 9.61996L8.08194 8.18219C8.07514 8.17795 8.06866 8.17322 8.06256 8.16802L7.98175 8.0992L7.87683 8.08305C7.83807 8.07708 7.80272 8.05745 7.77717 8.02771C7.75165 7.99801 7.73758 7.96018 7.73747 7.92104V5.0414C7.73747 4.99746 7.75493 4.95532 7.786 4.92425C7.81707 4.89317 7.85922 4.87572 7.90316 4.87572C7.9471 4.87572 7.98925 4.89317 8.02032 4.92425C8.05139 4.95532 8.06885 4.99746 8.06885 5.0414V7.57592Z" stroke="#FFA438" stroke-width="0.748626"/>
    </symbol>

    <symbol id="icon-videoÑall" viewBox="0 0 16 16" fill="none" xmlns="http://www.w3.org/2000/svg">
        <path d="M12.712 8.00593C12.8227 7.80601 12.9985 7.65004 13.2102 7.56398C13.4219 7.47792 13.6567 7.46696 13.8755 7.53293L14.234 7.64093L14.33 7.67293C14.627 7.78157 14.8889 7.96866 15.0881 8.21429C15.2872 8.45991 15.4161 8.75491 15.461 9.06793C15.6095 10.1019 15.2775 11.3109 14.477 12.6974C13.6785 14.0804 12.7995 14.9714 11.832 15.3614C11.5211 15.4867 11.1808 15.5201 10.8515 15.4576C10.5223 15.3951 10.2178 15.2394 9.9745 15.0089L9.7035 14.7519L9.6425 14.6889C9.49179 14.5189 9.40348 14.3026 9.39212 14.0756C9.38076 13.8487 9.44702 13.6247 9.58 13.4404L10.2585 12.5004L10.304 12.4434C10.3993 12.3354 10.5237 12.2572 10.6622 12.218C10.8008 12.1788 10.9478 12.1803 11.0855 12.2224L12.111 12.5359L12.1375 12.5409H12.159C12.2815 12.5274 12.5305 12.2799 12.8365 11.7499C13.1765 11.1609 13.2465 10.8164 13.153 10.7274L12.6315 10.2414L12.565 10.1749C12.399 9.99502 12.2895 9.77027 12.2502 9.52865C12.2109 9.28702 12.2435 9.03917 12.344 8.81593L12.675 8.08043L12.712 8.00593Z" stroke="#FFA438"/>
        <path d="M8.08996 12.505H4.32896C4.18578 12.505 4.0697 12.3889 4.0697 12.2457V11.8754C4.0697 10.4947 5.18899 9.37543 6.5697 9.37543H8.58889C9.13902 9.37543 9.70643 9.63903 10.0095 9.96465C10.1582 10.1245 10.2074 10.2593 10.211 10.3476C10.2137 10.4148 10.1943 10.5225 10.0299 10.6641C9.95182 10.7313 9.85613 10.8019 9.73618 10.8883C9.72211 10.8985 9.70772 10.9088 9.69304 10.9194C9.5882 10.9948 9.46903 11.0804 9.35198 11.1726C9.08514 11.3826 8.78541 11.6589 8.5837 12.0405C8.50449 12.1903 8.41028 12.3173 8.31378 12.4011C8.22016 12.4823 8.14711 12.505 8.08996 12.505Z" stroke="#FFA438"/>
        <path fill-rule="evenodd" clip-rule="evenodd" d="M1.08997 3.86078C1.08997 2.75621 1.9854 1.86078 3.08997 1.86078H12.7458C13.8503 1.86078 14.7458 2.75621 14.7458 3.86078V5.97279H13.9458V3.86078C13.9458 3.19804 13.4085 2.66078 12.7458 2.66078H3.08997C2.42722 2.66078 1.88997 3.19804 1.88997 3.86078V10.9719C1.88997 11.6347 2.42722 12.1719 3.08997 12.1719H5.91928V12.9719H3.08997C1.9854 12.9719 1.08997 12.0765 1.08997 10.9719V3.86078Z" fill="#FFA438"/>
        <path d="M8.66988 5.96738C8.66988 6.81383 7.98369 7.50002 7.13725 7.50002C6.2908 7.50002 5.60461 6.81383 5.60461 5.96738C5.60461 5.12094 6.2908 4.43475 7.13725 4.43475C7.98369 4.43475 8.66988 5.12094 8.66988 5.96738Z" stroke="#FFA438"/>
    </symbol>

    <symbol id="icon-building" viewBox="0 0 18 16" fill="none" xmlns="http://www.w3.org/2000/svg">
        <path d="M15.2222 14.8571V2.9206C15.2222 2.4491 15.0349 1.99692 14.7015 1.66352C14.3681 1.33012 13.9159 1.14282 13.4444 1.14282H4.55556C4.08406 1.14282 3.63188 1.33012 3.29848 1.66352C2.96508 1.99692 2.77778 2.4491 2.77778 2.9206V14.8571M15.2222 14.8571H2.77778M15.2222 14.8571H17M15.2222 14.8571H10.7778M2.77778 14.8571H1M2.77778 14.8571H7.22222M10.7778 14.8571V12.6984C10.7778 12.4626 10.6841 12.2365 10.5174 12.0698C10.3507 11.9031 10.1246 11.8095 9.88889 11.8095H8.11111C7.87536 11.8095 7.64927 11.9031 7.48257 12.0698C7.31587 12.2365 7.22222 12.4626 7.22222 12.6984V14.8571M10.7778 14.8571H7.22222M6.33333 4.69838H7.22222M6.33333 8.25393H7.22222M10.7778 4.69838H11.6667M10.7778 8.25393H11.6667" stroke="#FFA438" stroke-linecap="round" stroke-linejoin="round"/>
    </symbol>

    <symbol id="icon-telephone" viewBox="0 0 16 17" fill="none" xmlns="http://www.w3.org/2000/svg">
        <path d="M3.70411 2.25055C3.70411 2.25055 4.57316 1.65706 5.18307 1.72195C6.00546 1.80945 6.51293 2.28824 7.11628 3.17447C7.63008 3.92915 7.95014 5.07523 7.81439 5.58692C7.56045 6.54407 5.84863 7.18867 5.84863 7.18867C5.70103 7.37429 6.3485 8.60647 7.11628 9.59213C7.80727 10.479 8.65252 11.2134 8.87883 11.2069L8.91796 11.2015L8.96491 11.1857C8.96491 11.1857 9.96294 10.1857 11.0944 9.78581C11.6424 9.59213 12.3408 10.2365 12.9785 10.9019C14.0717 12.0424 14.3149 12.2614 14.0717 13.239C13.9329 13.7964 13.4867 14.4964 13.4867 14.4964C13.1022 14.9773 12.5878 15.3378 12.0044 15.5348C11.4211 15.7319 10.7934 15.7573 10.196 15.6081C8.33684 15.1434 6.51183 13.7447 4.70874 11.4303C2.90111 9.11013 1.99091 6.99429 1.99933 5.07523C2.00178 4.49431 2.16158 3.9249 2.46175 3.42753C2.76193 2.93016 3.19126 2.52343 3.70411 2.25055Z" stroke="#FFA438" stroke-linejoin="round"/>
    </symbol>

    <symbol id="icon-handset" viewBox="0 0 14 14" fill="none" xmlns="http://www.w3.org/2000/svg">
        <path fill-rule="evenodd" clip-rule="evenodd" d="M0.653076 1.08691C0.653076 0.534629 1.10079 0.0869141 1.65308 0.0869141H10.9253C11.4776 0.0869141 11.9253 0.53463 11.9253 1.08691V7.56664C11.9253 7.84279 11.7015 8.06664 11.4253 8.06664C11.1492 8.06664 10.9253 7.84279 10.9253 7.56664L10.9253 1.08691L1.65308 1.08691V12.8417H7.07117C7.34732 12.8417 7.57117 13.0655 7.57117 13.3417C7.57117 13.6178 7.34732 13.8417 7.07117 13.8417H1.65308C1.10079 13.8417 0.653076 13.394 0.653076 12.8417V1.08691Z" fill="#FFA438"/>
        <path fill-rule="evenodd" clip-rule="evenodd" d="M3.14026 3.68048C3.14026 3.40434 3.36412 3.18048 3.64026 3.18048H8.93814C9.21428 3.18048 9.43814 3.40434 9.43814 3.68048C9.43814 3.95662 9.21428 4.18048 8.93814 4.18048H3.64026C3.36412 4.18048 3.14026 3.95662 3.14026 3.68048Z" fill="#FFA438"/>
        <path fill-rule="evenodd" clip-rule="evenodd" d="M3.14026 5.68048C3.14026 5.40434 3.36412 5.18048 3.64026 5.18048H8.93814C9.21428 5.18048 9.43814 5.40434 9.43814 5.68048C9.43814 5.95662 9.21428 6.18048 8.93814 6.18048H3.64026C3.36412 6.18048 3.14026 5.95662 3.14026 5.68048Z" fill="#FFA438"/>
        <path fill-rule="evenodd" clip-rule="evenodd" d="M3.14026 7.68048C3.14026 7.40434 3.36412 7.18048 3.64026 7.18048H6.10458C6.38073 7.18048 6.60458 7.40434 6.60458 7.68048C6.60458 7.95662 6.38073 8.18048 6.10458 8.18048H3.64026C3.36412 8.18048 3.14026 7.95662 3.14026 7.68048Z" fill="#FFA438"/>
        <path fill-rule="evenodd" clip-rule="evenodd" d="M13.1362 8.72628C13.3614 8.88602 13.4146 9.19811 13.2548 9.42336L10.5463 13.2427C10.1998 13.7314 9.50433 13.8078 9.05998 13.406L7.21949 11.742C7.01465 11.5568 6.99873 11.2407 7.18392 11.0358C7.36912 10.831 7.6853 10.8151 7.89014 11.0003L9.73062 12.6642L12.4391 8.8449C12.5988 8.61965 12.9109 8.56654 13.1362 8.72628Z" fill="#FFA438"/>
    </symbol>

    <symbol id="icon-email" viewBox="0 0 14 15" fill="none" xmlns="http://www.w3.org/2000/svg">
        <path d="M10.858 8.91573V4.11434M3.08378 8.62013V4.11543M0.707658 13.3682L4.42934 9.96684M0.707658 13.3682C0.942978 13.5657 1.54779 13.5365 1.66746 13.5286C1.6815 13.5276 1.69525 13.5271 1.70932 13.5271H12.4931C12.5066 13.5271 12.5198 13.5266 12.5333 13.525C12.6329 13.5137 13.078 13.449 13.2346 13.1871M0.707658 13.3682C0.567088 13.2525 0.595528 12.4889 0.600189 12.3827C0.600559 12.3743 0.600756 12.3663 0.600756 12.3578V7.34732C0.600756 7.34732 0.600756 7.34732 0.600756 7.34732C0.600756 7.34732 0.600756 6.87698 0.600756 6.67301M13.2346 13.1871C11.7737 11.9122 9.48214 9.96684 9.48214 9.96684M13.2346 13.1871C13.4291 12.8551 13.4068 12.239 13.4011 12.1294C13.4006 12.118 13.4002 12.1068 13.4002 12.0954V7.16516C13.4002 7.16516 13.4002 7.16516 13.4002 7.16516C13.4002 7.16516 13.4002 6.88043 13.2901 6.67301M13.2901 6.67301L9.48214 9.96684M13.2901 6.67301C13.1609 6.42943 12.9583 6.18747 12.908 6.12888C12.9003 6.11987 12.8922 6.11134 12.8837 6.10302L10.858 4.11434M0.600756 6.67301L4.42934 9.96684M0.600756 6.67301C0.600756 6.45706 1.05924 6.02899 1.10038 5.99102C1.10256 5.989 1.1044 5.98729 1.10656 5.98525L3.08378 4.11543M3.08378 4.11543V2.883C3.08378 2.60685 3.30764 2.383 3.58378 2.383H4.80816M4.80816 2.383L6.60538 0.846444C6.79082 0.687894 7.06362 0.686341 7.25086 0.842769L9.09447 2.383M4.80816 2.383H9.09447M10.858 4.11434V2.883C10.858 2.60685 10.6342 2.383 10.358 2.383H9.09447M4.42934 9.96684L6.58999 7.95764C6.78028 7.78069 7.07441 7.77899 7.26673 7.95375L9.48214 9.96684" stroke="#FFA438"/>
    </symbol>

    <symbol id="icon-suitcase" viewBox="0 0 16 16" fill="none" xmlns="http://www.w3.org/2000/svg">
        <path d="M13.3334 4.66663H2.66671C1.93033 4.66663 1.33337 5.26358 1.33337 5.99996V12.6666C1.33337 13.403 1.93033 14 2.66671 14H13.3334C14.0698 14 14.6667 13.403 14.6667 12.6666V5.99996C14.6667 5.26358 14.0698 4.66663 13.3334 4.66663Z" stroke="#FFA438" stroke-linecap="round" stroke-linejoin="round"/>
        <path d="M10.6667 4.85773V3.33327C10.6667 2.97965 10.5262 2.64051 10.2762 2.39046C10.0261 2.14041 9.687 1.99994 9.33337 1.99994H6.66671C6.31309 1.99994 5.97395 2.14041 5.7239 2.39046C5.47385 2.64051 5.33337 2.97965 5.33337 3.33327V4.85773" stroke="#FFA438" stroke-linejoin="round"/>
        <path d="M13.7606 4.85768V6.6299C13.7606 7.04099 13.4571 7.43525 12.917 7.72594C12.3768 8.01663 11.6442 8.17993 10.8803 8.17993H5.11969C4.35578 8.17993 3.62316 8.01663 3.083 7.72594C2.54284 7.43525 2.23938 7.04099 2.23938 6.6299V4.85768" stroke="#FFA438" stroke-linejoin="round"/>
        <path d="M6.95837 9.33325H9.04171" stroke="#FFA438" stroke-linecap="round"/>
    </symbol>
    <symbol id="icon-check" viewBox="0 0 18 18" fill="none" xmlns="http://www.w3.org/2000/svg">
        <path d="M15 4.5L6.75 12.75L3 9"  stroke-width="2" stroke-linecap="round" stroke-linejoin="round"/>
    </symbol>
    <symbol id="icon-arr" viewBox="0 0 13 14" fill="none" xmlns="http://www.w3.org/2000/svg">
        <path d="M3.875 1.75L8.41789 6.29289C8.80842 6.68342 8.80842 7.31658 8.41789 7.70711L3.875 12.25" stroke="#606483" stroke-width="2" stroke-linecap="round" stroke-linejoin="round"/>
    </symbol>

</svg>

