<svg width="16" height="16" viewBox="0 0 16 16" fill="none" xmlns="http://www.w3.org/2000/svg">
<path d="M13.3334 4.66663H2.66671C1.93033 4.66663 1.33337 5.26358 1.33337 5.99996V12.6666C1.33337 13.403 1.93033 14 2.66671 14H13.3334C14.0698 14 14.6667 13.403 14.6667 12.6666V5.99996C14.6667 5.26358 14.0698 4.66663 13.3334 4.66663Z" stroke="#FFA438" stroke-linecap="round" stroke-linejoin="round"/>
<path d="M10.6667 4.85773V3.33327C10.6667 2.97965 10.5262 2.64051 10.2762 2.39046C10.0261 2.14041 9.687 1.99994 9.33337 1.99994H6.66671C6.31309 1.99994 5.97395 2.14041 5.7239 2.39046C5.47385 2.64051 5.33337 2.97965 5.33337 3.33327V4.85773" stroke="#FFA438" stroke-linejoin="round"/>
<path d="M13.7606 4.85768V6.6299C13.7606 7.04099 13.4571 7.43525 12.917 7.72594C12.3768 8.01663 11.6442 8.17993 10.8803 8.17993H5.11969C4.35578 8.17993 3.62316 8.01663 3.083 7.72594C2.54284 7.43525 2.23938 7.04099 2.23938 6.6299V4.85768" stroke="#FFA438" stroke-linejoin="round"/>
<path d="M6.95837 9.33325H9.04171" stroke="#FFA438" stroke-linecap="round"/>
</svg>
