<svg width="16" height="16" viewBox="0 0 16 16" fill="none" xmlns="http://www.w3.org/2000/svg">
<path d="M8 2.75C9.03835 2.75 10.0534 3.05791 10.9167 3.63478C11.7801 4.21166 12.453 5.0316 12.8504 5.99091C13.2477 6.95022 13.3517 8.00582 13.1491 9.02422C12.9465 10.0426 12.4465 10.9781 11.7123 11.7123C10.9781 12.4465 10.0426 12.9465 9.02422 13.1491C8.00582 13.3517 6.95022 13.2477 5.99091 12.8504C5.0316 12.453 4.21166 11.7801 3.63478 10.9167C3.05791 10.0534 2.75 9.03835 2.75 8C2.75 6.60761 3.30312 5.27225 4.28769 4.28769C5.27225 3.30312 6.60761 2.75 8 2.75Z" stroke="#8999A5" stroke-width="1.5"/>
<path d="M8.03611 7.98028L8.14407 8.07221C8.1451 8.07308 8.14617 8.0739 8.14729 8.07466L10.6351 9.51099C10.6443 9.51629 10.6552 9.51773 10.6655 9.51498C10.6757 9.51224 10.6845 9.50554 10.6898 9.49636L8.03611 7.98028ZM8.03611 7.98028L7.89597 7.9587M8.03611 7.98028L7.89597 7.9587M7.89597 7.9587C7.88685 7.9573 7.87853 7.95268 7.87252 7.94568C7.86654 7.93872 7.86323 7.92986 7.86317 7.92069V5.04128C7.86317 5.03067 7.86739 5.0205 7.87489 5.013C7.88239 5.0055 7.89257 5.00128 7.90317 5.00128C7.91378 5.00128 7.92396 5.0055 7.93146 5.013C7.93896 5.0205 7.94317 5.03067 7.94317 5.04128V7.5758V7.86448M7.89597 7.9587L7.94317 7.86448M7.94317 7.86448L8.19318 8.00882M7.94317 7.86448L8.19318 8.00882M8.19318 8.00882L10.6751 9.44172M8.19318 8.00882L10.6751 9.44172M10.6751 9.44172C10.6751 9.44173 10.6751 9.44173 10.6751 9.44174M10.6751 9.44172L10.6751 9.44174M10.6751 9.44174C10.6843 9.44704 10.691 9.45577 10.6938 9.46601M10.6751 9.44174L10.6938 9.46601M10.6938 9.46601C10.6965 9.47625 10.6951 9.48716 10.6898 9.49635L10.6938 9.46601Z" stroke="#8999A5"/>
</svg>
