<svg width="30" height="30" viewBox="0 0 30 30" fill="none" xmlns="http://www.w3.org/2000/svg">
<g opacity="0.6">
<path d="M24.4548 9.1531C23.7672 9.47682 23.0284 9.69554 22.2518 9.79441C23.0531 9.28503 23.6526 8.48334 23.9385 7.53891C23.1856 8.01397 22.3617 8.34836 21.5024 8.52755C20.9246 7.87213 20.1593 7.4377 19.3252 7.29173C18.4912 7.14575 17.6352 7.29638 16.89 7.72023C16.1448 8.14409 15.5522 8.81746 15.2041 9.63579C14.8561 10.4541 14.7721 11.3716 14.9652 12.2459C13.4397 12.1645 11.9474 11.7433 10.5851 11.0096C9.22278 10.2758 8.02092 9.24598 7.05751 7.98686C6.72809 8.59054 6.53868 9.29046 6.53868 10.0359C6.53831 10.7069 6.69386 11.3677 6.99153 11.9596C7.28919 12.5514 7.71977 13.0561 8.24506 13.4288C7.63586 13.4082 7.04011 13.2333 6.50739 12.9187V12.9712C6.50732 13.9123 6.81377 14.8246 7.37473 15.553C7.93568 16.2815 8.71659 16.7813 9.58496 16.9677C9.01983 17.1302 8.42734 17.1542 7.85223 17.0377C8.09723 17.8475 8.57447 18.5557 9.21714 19.0631C9.85981 19.5704 10.6357 19.8516 11.4363 19.8672C10.0773 21.0005 8.39897 21.6153 6.67127 21.6126C6.36523 21.6127 6.05944 21.5937 5.75549 21.5557C7.5092 22.7536 9.55065 23.3894 11.6356 23.3869C18.6933 23.3869 22.5516 17.1768 22.5516 11.7909C22.5516 11.616 22.5475 11.4392 22.5401 11.2642C23.2906 10.6877 23.9384 9.97367 24.4532 9.15573L24.4548 9.1531V9.1531Z" fill="#2F93E1"/>
</g>
</svg>
