<svg width="16" height="16" viewBox="0 0 16 16" fill="none" xmlns="http://www.w3.org/2000/svg">
<path d="M12.712 8.00593C12.8227 7.80601 12.9985 7.65004 13.2102 7.56398C13.4219 7.47792 13.6567 7.46696 13.8755 7.53293L14.234 7.64093L14.33 7.67293C14.627 7.78157 14.8889 7.96866 15.0881 8.21429C15.2872 8.45991 15.4161 8.75491 15.461 9.06793C15.6095 10.1019 15.2775 11.3109 14.477 12.6974C13.6785 14.0804 12.7995 14.9714 11.832 15.3614C11.5211 15.4867 11.1808 15.5201 10.8515 15.4576C10.5223 15.3951 10.2178 15.2394 9.9745 15.0089L9.7035 14.7519L9.6425 14.6889C9.49179 14.5189 9.40348 14.3026 9.39212 14.0756C9.38076 13.8487 9.44702 13.6247 9.58 13.4404L10.2585 12.5004L10.304 12.4434C10.3993 12.3354 10.5237 12.2572 10.6622 12.218C10.8008 12.1788 10.9478 12.1803 11.0855 12.2224L12.111 12.5359L12.1375 12.5409H12.159C12.2815 12.5274 12.5305 12.2799 12.8365 11.7499C13.1765 11.1609 13.2465 10.8164 13.153 10.7274L12.6315 10.2414L12.565 10.1749C12.399 9.99502 12.2895 9.77027 12.2502 9.52865C12.2109 9.28702 12.2435 9.03917 12.344 8.81593L12.675 8.08043L12.712 8.00593Z" stroke="#FFA438"/>
<path d="M8.08996 12.505H4.32896C4.18578 12.505 4.0697 12.3889 4.0697 12.2457V11.8754C4.0697 10.4947 5.18899 9.37543 6.5697 9.37543H8.58889C9.13902 9.37543 9.70643 9.63903 10.0095 9.96465C10.1582 10.1245 10.2074 10.2593 10.211 10.3476C10.2137 10.4148 10.1943 10.5225 10.0299 10.6641C9.95182 10.7313 9.85613 10.8019 9.73618 10.8883C9.72211 10.8985 9.70772 10.9088 9.69304 10.9194C9.5882 10.9948 9.46903 11.0804 9.35198 11.1726C9.08514 11.3826 8.78541 11.6589 8.5837 12.0405C8.50449 12.1903 8.41028 12.3173 8.31378 12.4011C8.22016 12.4823 8.14711 12.505 8.08996 12.505Z" stroke="#FFA438"/>
<path fill-rule="evenodd" clip-rule="evenodd" d="M1.08997 3.86078C1.08997 2.75621 1.9854 1.86078 3.08997 1.86078H12.7458C13.8503 1.86078 14.7458 2.75621 14.7458 3.86078V5.97279H13.9458V3.86078C13.9458 3.19804 13.4085 2.66078 12.7458 2.66078H3.08997C2.42722 2.66078 1.88997 3.19804 1.88997 3.86078V10.9719C1.88997 11.6347 2.42722 12.1719 3.08997 12.1719H5.91928V12.9719H3.08997C1.9854 12.9719 1.08997 12.0765 1.08997 10.9719V3.86078Z" fill="#FFA438"/>
<path d="M8.66988 5.96738C8.66988 6.81383 7.98369 7.50002 7.13725 7.50002C6.2908 7.50002 5.60461 6.81383 5.60461 5.96738C5.60461 5.12094 6.2908 4.43475 7.13725 4.43475C7.98369 4.43475 8.66988 5.12094 8.66988 5.96738Z" stroke="#FFA438"/>
</svg>
