<svg width="16" height="16" viewBox="0 0 16 16" fill="none" xmlns="http://www.w3.org/2000/svg">
<path d="M11.6112 2.59545C10.5423 1.88122 9.28558 1.5 8 1.5C6.27609 1.5 4.62279 2.18482 3.40381 3.40381C2.18482 4.62279 1.5 6.27609 1.5 8C1.5 9.28558 1.88122 10.5423 2.59545 11.6112C3.30968 12.6801 4.32484 13.5132 5.51256 14.0052C6.70028 14.4972 8.00721 14.6259 9.26809 14.3751C10.529 14.1243 11.6872 13.5052 12.5962 12.5962C13.5052 11.6872 14.1243 10.529 14.3751 9.26809C14.6259 8.00721 14.4972 6.70028 14.0052 5.51256C13.5132 4.32484 12.6801 3.30968 11.6112 2.59545Z" stroke="#FFA438"/>
<path d="M8.06885 7.57592V7.79204L8.25601 7.90009L10.738 9.333C10.738 9.333 10.738 9.33301 10.738 9.33301C10.776 9.35498 10.8038 9.39117 10.8151 9.43361C10.8265 9.47605 10.8206 9.52127 10.7986 9.55933C10.7766 9.59738 10.7404 9.62514 10.698 9.63651C10.6556 9.64788 10.6103 9.64193 10.5723 9.61996L8.08194 8.18219C8.07514 8.17795 8.06866 8.17322 8.06256 8.16802L7.98175 8.0992L7.87683 8.08305C7.83807 8.07708 7.80272 8.05745 7.77717 8.02771C7.75165 7.99801 7.73758 7.96018 7.73747 7.92104V5.0414C7.73747 4.99746 7.75493 4.95532 7.786 4.92425C7.81707 4.89317 7.85922 4.87572 7.90316 4.87572C7.9471 4.87572 7.98925 4.89317 8.02032 4.92425C8.05139 4.95532 8.06885 4.99746 8.06885 5.0414V7.57592Z" stroke="#FFA438" stroke-width="0.748626"/>
</svg>
