<svg width="30" height="30" viewBox="0 0 30 30" fill="none" xmlns="http://www.w3.org/2000/svg">
<g opacity="0.6">
<path d="M23.5747 10.4592C23.4689 10.0989 23.2626 9.77266 22.978 9.51523C22.6853 9.24989 22.3266 9.06009 21.9356 8.96373C20.4726 8.59582 14.6112 8.59582 14.6112 8.59582C12.1676 8.56929 9.72463 8.68596 7.29605 8.94515C6.90513 9.04862 6.54706 9.24267 6.2537 9.51003C5.96546 9.77463 5.75668 10.1009 5.64762 10.4584C5.38562 11.805 5.25833 13.1723 5.26745 14.5419C5.2581 15.9103 5.38508 17.2771 5.64762 18.6254C5.75434 18.9814 5.96235 19.3062 6.25137 19.5686C6.54039 19.831 6.9003 20.0205 7.29605 20.1208C8.77855 20.488 14.6112 20.488 14.6112 20.488C17.0579 20.5146 19.5039 20.3979 21.9356 20.1387C22.3266 20.0423 22.6853 19.8525 22.978 19.5872C23.2662 19.3248 23.4711 18.9985 23.574 18.6432C23.8428 17.2971 23.9735 15.9293 23.9643 14.559C23.9845 13.1829 23.8539 11.8086 23.5747 10.4584V10.4592ZM12.7477 17.0868V11.9977L17.6245 14.5427L12.7477 17.0868Z" fill="#2F93E1"/>
</g>
</svg>
